{"glyphs":{"0":{"ha":1125,"x_min":0,"x_max":0,"o":"m 563 -14 b 63 493 293 -14 63 190 b 563 1000 63 796 293 1000 b 1063 493 832 1000 1063 796 b 563 -14 1063 190 832 -14 m 563 131 b 906 493 747 131 906 276 b 563 856 906 710 747 856 b 219 493 376 856 219 710 b 563 131 219 276 376 131 "},"1":{"ha":485,"x_min":0,"x_max":0,"o":"m 228 843 l 76 843 l 76 986 l 382 986 l 382 0 l 228 0 "},"2":{"ha":754,"x_min":0,"x_max":0,"o":"m 365 410 b 529 706 475 553 529 614 b 378 856 529 817 451 856 b 217 686 300 856 217 808 l 217 661 l 61 661 l 61 700 b 381 1000 61 865 174 1000 b 692 726 572 1000 692 882 b 526 397 692 592 604 496 l 321 138 l 692 138 l 692 0 l 49 0 "},"3":{"ha":797,"x_min":0,"x_max":0,"o":"m 386 -14 b 56 201 219 -14 99 79 l 171 271 b 382 122 208 175 288 122 b 585 321 490 122 585 192 b 289 504 585 472 451 556 l 485 851 l 110 851 l 110 986 l 708 986 l 490 613 b 742 311 618 597 742 488 b 386 -14 742 111 582 -14 "},"4":{"ha":788,"x_min":0,"x_max":0,"o":"m 739 236 l 635 236 l 635 0 l 478 0 l 478 236 l 56 236 l 56 371 l 478 986 l 635 986 l 635 371 l 739 371 m 478 371 l 478 772 l 211 371 "},"5":{"ha":779,"x_min":0,"x_max":0,"o":"m 371 -14 b 49 188 210 -14 94 74 l 168 253 b 368 125 188 196 261 125 b 572 326 472 125 572 193 b 372 532 572 453 482 532 b 193 439 283 532 222 482 l 71 490 l 136 986 l 626 986 l 626 851 l 258 851 l 221 594 b 404 660 242 622 310 660 b 724 328 571 660 724 536 b 371 -14 724 115 565 -14 "},"6":{"ha":764,"x_min":0,"x_max":0,"o":"m 415 604 b 708 301 575 604 708 483 b 381 -14 708 107 556 -14 b 56 307 206 -14 56 107 b 203 656 56 461 143 574 l 440 986 l 615 986 l 331 592 b 415 604 357 600 388 604 m 382 121 b 563 297 485 121 563 194 b 382 474 563 401 485 474 b 201 297 279 474 201 401 b 382 121 201 194 279 121 "},"7":{"ha":699,"x_min":0,"x_max":0,"o":"m 453 851 l 42 851 l 42 986 l 657 986 l 263 0 l 108 0 "},"8":{"ha":774,"x_min":0,"x_max":0,"o":"m 386 -14 b 56 289 214 -14 56 100 b 217 550 56 417 126 508 b 114 750 158 592 114 663 b 386 1000 114 882 218 1000 b 660 750 556 1000 660 882 b 557 550 660 663 615 592 b 718 289 646 508 718 417 b 386 -14 718 100 560 -14 m 386 606 b 518 738 464 606 518 667 b 386 868 518 811 464 868 b 254 738 310 868 254 811 b 386 606 254 667 308 606 m 386 128 b 563 299 482 128 563 196 b 386 469 563 403 482 469 b 210 299 292 469 210 403 b 386 128 210 196 290 128 "},"9":{"ha":764,"x_min":0,"x_max":0,"o":"m 383 1000 b 708 679 558 1000 708 879 b 560 331 708 525 621 413 l 324 0 l 149 0 l 433 394 b 349 382 407 386 378 382 b 54 685 189 382 54 503 b 383 1000 54 879 208 1000 m 382 513 b 563 689 485 513 563 585 b 382 865 563 792 485 865 b 201 689 279 865 201 792 b 382 513 201 585 279 513 "}," ":{"ha":292,"x_min":0,"x_max":0,"o":""},"A":{"ha":975,"x_min":0,"x_max":0,"o":"m 708 201 l 267 201 l 190 0 l 21 0 l 406 986 l 568 986 l 954 0 l 785 0 m 654 347 l 488 789 l 321 347 "},"Á":{"ha":975,"x_min":0,"x_max":0,"o":"m 560 1061 l 431 1061 l 518 1278 l 657 1278 m 708 201 l 267 201 l 190 0 l 21 0 l 406 986 l 568 986 l 954 0 l 785 0 m 654 347 l 488 789 l 321 347 "},"Ă":{"ha":975,"x_min":0,"x_max":0,"o":"m 488 1067 b 278 1278 336 1067 276 1175 l 390 1278 b 488 1174 390 1224 417 1174 b 585 1278 557 1174 585 1224 l 697 1278 b 488 1067 699 1175 638 1067 m 708 201 l 267 201 l 190 0 l 21 0 l 406 986 l 568 986 l 954 0 l 785 0 m 654 347 l 488 789 l 321 347 "},"Ǎ":{"ha":975,"x_min":0,"x_max":0,"o":"m 426 1038 l 276 1210 l 353 1278 l 478 1136 l 603 1278 l 679 1210 l 529 1038 m 708 201 l 267 201 l 190 0 l 21 0 l 406 986 l 568 986 l 954 0 l 785 0 m 654 347 l 488 789 l 321 347 "},"Â":{"ha":975,"x_min":0,"x_max":0,"o":"m 363 1038 l 286 1106 l 436 1278 l 539 1278 l 689 1106 l 613 1038 l 488 1179 m 708 201 l 267 201 l 190 0 l 21 0 l 406 986 l 568 986 l 954 0 l 785 0 m 654 347 l 488 789 l 321 347 "},"Ä":{"ha":975,"x_min":0,"x_max":0,"o":"m 400 1099 l 256 1099 l 256 1251 l 400 1251 m 721 1099 l 576 1099 l 576 1251 l 721 1251 m 708 201 l 267 201 l 190 0 l 21 0 l 406 986 l 568 986 l 954 0 l 785 0 m 654 347 l 488 789 l 321 347 "},"À":{"ha":975,"x_min":0,"x_max":0,"o":"m 418 1061 l 322 1278 l 460 1278 l 549 1061 m 708 201 l 267 201 l 190 0 l 21 0 l 406 986 l 568 986 l 954 0 l 785 0 m 654 347 l 488 789 l 321 347 "},"Ā":{"ha":975,"x_min":0,"x_max":0,"o":"m 746 1104 l 231 1104 l 231 1222 l 746 1222 m 708 201 l 267 201 l 190 0 l 21 0 l 406 986 l 568 986 l 954 0 l 785 0 m 654 347 l 488 789 l 321 347 "},"Ą":{"ha":975,"x_min":0,"x_max":0,"o":"m 768 -142 b 879 -206 768 -200 831 -225 l 879 -275 b 631 -162 804 -318 631 -300 b 785 1 631 -90 688 -35 l 708 201 l 267 201 l 190 0 l 21 0 l 406 986 l 568 986 l 954 0 b 768 -142 808 -42 768 -93 m 654 347 l 488 789 l 321 347 "},"Å":{"ha":975,"x_min":0,"x_max":0,"o":"m 489 1065 b 344 1207 406 1065 344 1129 b 489 1350 344 1286 406 1350 b 629 1207 567 1350 629 1286 b 489 1065 629 1129 567 1065 m 486 1251 b 444 1207 461 1251 444 1232 b 486 1164 444 1183 461 1164 b 531 1207 511 1164 531 1183 b 486 1251 531 1232 511 1251 m 708 201 l 267 201 l 190 0 l 21 0 l 406 986 l 568 986 l 954 0 l 785 0 m 654 347 l 488 789 l 321 347 "},"Ã":{"ha":975,"x_min":0,"x_max":0,"o":"m 407 1157 b 351 1108 376 1157 351 1140 l 235 1108 b 381 1269 235 1206 289 1269 b 567 1189 492 1269 499 1189 b 622 1238 597 1189 622 1206 l 739 1238 b 593 1076 739 1140 685 1076 b 407 1157 482 1076 475 1157 m 708 201 l 267 201 l 190 0 l 21 0 l 406 986 l 568 986 l 954 0 l 785 0 m 654 347 l 488 789 l 321 347 "},"Æ":{"ha":1299,"x_min":0,"x_max":0,"o":"m 1244 146 l 1244 0 l 686 0 l 686 236 l 354 236 l 196 0 l 19 0 l 686 986 l 1232 986 l 1232 840 l 843 840 l 843 567 l 1172 567 l 1172 425 l 843 425 l 843 146 m 686 371 l 686 728 l 446 371 "},"B":{"ha":801,"x_min":0,"x_max":0,"o":"m 557 549 b 754 286 668 521 754 433 b 417 0 754 118 642 0 l 76 0 l 76 986 l 426 986 b 694 751 597 986 694 881 b 557 549 694 653 636 579 m 233 847 l 233 593 l 394 593 b 543 724 493 593 543 647 b 394 847 543 800 493 847 m 407 139 b 599 301 536 139 599 200 b 404 471 599 401 536 471 l 233 471 l 233 139 l 407 139 "},"C":{"ha":1008,"x_min":0,"x_max":0,"o":"m 568 -14 b 63 493 292 -14 63 189 b 568 1000 63 797 292 1000 b 960 796 696 1000 856 957 l 846 715 b 572 850 774 815 668 850 b 224 493 379 850 224 710 b 574 136 224 275 381 136 b 846 271 671 136 774 171 l 960 190 b 568 -14 856 29 696 -14 "},"Ć":{"ha":1008,"x_min":0,"x_max":0,"o":"m 571 1292 l 710 1292 l 613 1075 l 483 1075 m 568 -14 b 63 493 292 -14 63 189 b 568 1000 63 797 292 1000 b 960 796 696 1000 856 957 l 846 715 b 572 850 774 815 668 850 b 224 493 379 850 224 710 b 574 136 224 275 381 136 b 846 271 671 136 774 171 l 960 190 b 568 -14 856 29 696 -14 "},"Č":{"ha":1008,"x_min":0,"x_max":0,"o":"m 532 1150 l 657 1292 l 733 1224 l 583 1051 l 481 1051 l 331 1224 l 407 1292 m 568 -14 b 63 493 292 -14 63 189 b 568 1000 63 797 292 1000 b 960 796 696 1000 856 957 l 846 715 b 572 850 774 815 668 850 b 224 493 379 850 224 710 b 574 136 224 275 381 136 b 846 271 671 136 774 171 l 960 190 b 568 -14 856 29 696 -14 "},"Ç":{"ha":1008,"x_min":0,"x_max":0,"o":"m 574 136 b 846 271 671 136 774 171 l 960 190 b 603 -12 865 43 724 -6 l 572 -56 b 697 -174 647 -57 697 -107 b 454 -301 697 -278 572 -328 l 454 -247 b 583 -185 529 -250 583 -236 b 464 -124 583 -146 551 -112 l 444 -86 l 492 -8 b 63 493 251 25 63 217 b 568 1000 63 797 292 1000 b 960 796 696 1000 856 957 l 846 715 b 572 850 774 815 668 850 b 224 493 379 850 224 710 b 574 136 224 275 381 136 "},"Ċ":{"ha":1008,"x_min":0,"x_max":0,"o":"m 465 1265 l 619 1265 l 619 1113 l 465 1113 m 568 -14 b 63 493 292 -14 63 189 b 568 1000 63 797 292 1000 b 960 796 696 1000 856 957 l 846 715 b 572 850 774 815 668 850 b 224 493 379 850 224 710 b 574 136 224 275 381 136 b 846 271 671 136 774 171 l 960 190 b 568 -14 856 29 696 -14 "},"D":{"ha":932,"x_min":0,"x_max":0,"o":"m 76 986 l 404 986 b 885 493 685 986 885 785 b 404 0 885 201 685 0 l 76 0 m 399 149 b 722 493 608 149 722 288 b 399 838 722 699 608 838 l 233 838 l 233 149 "},"Ð":{"ha":1010,"x_min":0,"x_max":0,"o":"m 481 986 b 961 493 763 986 961 785 b 481 0 961 201 763 0 l 153 0 l 153 415 l 79 415 l 79 543 l 153 543 l 153 986 l 481 986 m 475 149 b 799 493 685 149 799 288 b 475 838 799 699 685 838 l 310 838 l 310 543 l 510 543 l 510 415 l 310 415 l 310 149 l 475 149 "},"Ď":{"ha":932,"x_min":0,"x_max":0,"o":"m 458 1150 l 583 1292 l 660 1224 l 510 1051 l 407 1051 l 257 1224 l 333 1292 m 76 986 l 404 986 b 885 493 685 986 885 785 b 404 0 885 201 685 0 l 76 0 m 399 149 b 722 493 608 149 722 288 b 399 838 722 699 608 838 l 233 838 l 233 149 "},"Đ":{"ha":1010,"x_min":0,"x_max":0,"o":"m 481 986 b 961 493 763 986 961 785 b 481 0 961 201 763 0 l 153 0 l 153 415 l 79 415 l 79 543 l 153 543 l 153 986 l 481 986 m 475 149 b 799 493 685 149 799 288 b 475 838 799 699 685 838 l 310 838 l 310 543 l 510 543 l 510 415 l 310 415 l 310 149 l 475 149 "},"E":{"ha":688,"x_min":0,"x_max":0,"o":"m 633 146 l 633 0 l 76 0 l 76 986 l 621 986 l 621 840 l 233 840 l 233 567 l 561 567 l 561 425 l 233 425 l 233 146 "},"É":{"ha":688,"x_min":0,"x_max":0,"o":"m 451 1075 l 322 1075 l 410 1292 l 549 1292 m 633 146 l 633 0 l 76 0 l 76 986 l 621 986 l 621 840 l 233 840 l 233 567 l 561 567 l 561 425 l 233 425 l 233 146 "},"Ě":{"ha":688,"x_min":0,"x_max":0,"o":"m 319 1051 l 169 1224 l 246 1292 l 371 1150 l 496 1292 l 572 1224 l 422 1051 m 633 146 l 633 0 l 76 0 l 76 986 l 621 986 l 621 840 l 233 840 l 233 567 l 561 567 l 561 425 l 233 425 l 233 146 "},"Ê":{"ha":688,"x_min":0,"x_max":0,"o":"m 254 1051 l 178 1119 l 328 1292 l 431 1292 l 581 1119 l 504 1051 l 379 1193 m 633 146 l 633 0 l 76 0 l 76 986 l 621 986 l 621 840 l 233 840 l 233 567 l 561 567 l 561 425 l 233 425 l 233 146 "},"Ë":{"ha":688,"x_min":0,"x_max":0,"o":"m 292 1113 l 147 1113 l 147 1265 l 292 1265 m 613 1113 l 468 1113 l 468 1265 l 613 1265 m 633 146 l 633 0 l 76 0 l 76 986 l 621 986 l 621 840 l 233 840 l 233 567 l 561 567 l 561 425 l 233 425 l 233 146 "},"Ė":{"ha":688,"x_min":0,"x_max":0,"o":"m 458 1113 l 304 1113 l 304 1265 l 458 1265 m 633 146 l 633 0 l 76 0 l 76 986 l 621 986 l 621 840 l 233 840 l 233 567 l 561 567 l 561 425 l 233 425 l 233 146 "},"È":{"ha":688,"x_min":0,"x_max":0,"o":"m 311 1075 l 215 1292 l 353 1292 l 442 1075 m 633 146 l 633 0 l 76 0 l 76 986 l 621 986 l 621 840 l 233 840 l 233 567 l 561 567 l 561 425 l 233 425 l 233 146 "},"Ē":{"ha":688,"x_min":0,"x_max":0,"o":"m 638 1236 l 638 1118 l 122 1118 l 122 1236 m 233 146 l 633 146 l 633 0 l 76 0 l 76 986 l 621 986 l 621 840 l 233 840 l 233 567 l 561 567 l 561 425 l 233 425 "},"Ę":{"ha":688,"x_min":0,"x_max":0,"o":"m 633 0 b 447 -142 488 -42 447 -93 b 558 -206 447 -200 510 -225 l 558 -275 b 310 -162 483 -318 310 -300 b 461 0 310 -92 367 -35 l 76 0 l 76 986 l 621 986 l 621 840 l 233 840 l 233 567 l 561 567 l 561 425 l 233 425 l 233 146 l 633 146 l 633 0 "},"F":{"ha":674,"x_min":0,"x_max":0,"o":"m 233 843 l 233 563 l 589 563 l 589 429 l 233 429 l 233 0 l 76 0 l 76 986 l 619 986 l 619 843 "},"G":{"ha":1083,"x_min":0,"x_max":0,"o":"m 1019 517 b 565 -14 1054 183 832 -14 b 63 493 293 -14 63 189 b 569 1000 63 797 293 1000 b 961 796 696 1000 857 957 l 847 715 b 572 850 775 815 671 850 b 224 493 378 850 224 713 b 572 132 224 275 378 132 b 867 385 713 132 839 206 l 610 385 l 610 517 l 1019 517 "},"Ğ":{"ha":1083,"x_min":0,"x_max":0,"o":"m 574 1081 b 364 1292 422 1081 363 1189 l 476 1292 b 574 1188 476 1238 503 1188 b 671 1292 643 1188 671 1238 l 783 1292 b 574 1081 785 1189 724 1081 m 1019 517 b 565 -14 1054 183 832 -14 b 63 493 293 -14 63 189 b 569 1000 63 797 293 1000 b 961 796 696 1000 857 957 l 847 715 b 572 850 775 815 671 850 b 224 493 378 850 224 713 b 572 132 224 275 378 132 b 867 385 713 132 839 206 l 610 385 l 610 517 l 1019 517 "},"Ģ":{"ha":1083,"x_min":0,"x_max":0,"o":"m 1019 517 b 565 -14 1054 183 832 -14 b 63 493 293 -14 63 189 b 569 1000 63 797 293 1000 b 961 796 696 1000 857 957 l 847 715 b 572 850 775 815 671 850 b 224 493 378 850 224 713 b 572 132 224 275 378 132 b 867 385 713 132 839 206 l 610 385 l 610 517 l 1019 517 m 486 -56 l 621 -56 l 500 -394 l 367 -394 "},"Ġ":{"ha":1083,"x_min":0,"x_max":0,"o":"m 651 1113 l 497 1113 l 497 1265 l 651 1265 m 1019 517 b 565 -14 1054 183 832 -14 b 63 493 293 -14 63 189 b 569 1000 63 797 293 1000 b 961 796 696 1000 857 957 l 847 715 b 572 850 775 815 671 850 b 224 493 378 850 224 713 b 572 132 224 275 378 132 b 867 385 713 132 839 206 l 610 385 l 610 517 l 1019 517 "},"H":{"ha":911,"x_min":0,"x_max":0,"o":"m 835 986 l 835 0 l 678 0 l 678 417 l 233 417 l 233 0 l 76 0 l 76 986 l 233 986 l 233 563 l 678 563 l 678 986 "},"Ħ":{"ha":911,"x_min":0,"x_max":0,"o":"m 835 986 l 835 0 l 678 0 l 678 417 l 233 417 l 233 0 l 76 0 l 76 986 l 233 986 l 233 824 l 678 824 l 678 986 m 678 563 l 678 678 l 233 678 l 233 563 "},"I":{"ha":308,"x_min":0,"x_max":0,"o":"m 76 986 l 233 986 l 233 0 l 76 0 "},"Ĳ":{"ha":1006,"x_min":0,"x_max":0,"o":"m 76 986 l 233 986 l 233 0 l 76 0 m 614 -14 b 343 128 488 -14 394 42 l 443 229 b 607 138 476 182 528 138 b 774 333 676 138 774 172 l 774 986 l 931 986 l 931 313 b 614 -14 931 74 769 -14 "},"Í":{"ha":308,"x_min":0,"x_max":0,"o":"m 185 1292 l 324 1292 l 226 1075 l 97 1075 m 76 986 l 233 986 l 233 0 l 76 0 "},"Ǐ":{"ha":308,"x_min":0,"x_max":0,"o":"m 144 1150 l 269 1292 l 346 1224 l 196 1051 l 93 1051 l -57 1224 l 19 1292 m 76 986 l 233 986 l 233 0 l 76 0 "},"Î":{"ha":308,"x_min":0,"x_max":0,"o":"m -47 1119 l 103 1292 l 206 1292 l 356 1119 l 279 1051 l 154 1193 l 29 1051 m 76 986 l 233 986 l 233 0 l 76 0 "},"Ï":{"ha":308,"x_min":0,"x_max":0,"o":"m -78 1265 l 67 1265 l 67 1113 l -78 1113 m 243 1265 l 388 1265 l 388 1113 l 243 1113 m 76 986 l 233 986 l 233 0 l 76 0 "},"İ":{"ha":308,"x_min":0,"x_max":0,"o":"m 79 1265 l 233 1265 l 233 1113 l 79 1113 m 76 986 l 233 986 l 233 0 l 76 0 "},"Ì":{"ha":308,"x_min":0,"x_max":0,"o":"m 86 1075 l -10 1292 l 128 1292 l 217 1075 m 76 986 l 233 986 l 233 0 l 76 0 "},"Ī":{"ha":308,"x_min":0,"x_max":0,"o":"m -103 1236 l 413 1236 l 413 1118 l -103 1118 m 76 986 l 233 986 l 233 0 l 76 0 "},"Į":{"ha":308,"x_min":0,"x_max":0,"o":"m 233 0 b 47 -142 88 -42 47 -93 b 158 -206 47 -200 110 -225 l 158 -275 b -90 -162 83 -318 -90 -300 b 76 6 -90 -87 -28 -29 l 76 986 l 233 986 l 233 0 "},"J":{"ha":697,"x_min":0,"x_max":0,"o":"m 306 -14 b 35 128 179 -14 86 42 l 135 229 b 299 138 168 182 219 138 b 465 333 368 138 465 172 l 465 986 l 622 986 l 622 313 b 306 -14 622 74 461 -14 "},"K":{"ha":883,"x_min":0,"x_max":0,"o":"m 347 424 l 233 289 l 233 0 l 76 0 l 76 986 l 233 986 l 233 496 l 646 986 l 824 986 l 442 535 l 857 0 l 682 0 "},"Ķ":{"ha":883,"x_min":0,"x_max":0,"o":"m 857 0 l 682 0 l 347 424 l 233 289 l 233 0 l 76 0 l 76 986 l 233 986 l 233 496 l 646 986 l 824 986 l 442 535 m 410 -56 l 544 -56 l 424 -394 l 290 -394 "},"L":{"ha":688,"x_min":0,"x_max":0,"o":"m 640 146 l 640 0 l 76 0 l 76 986 l 233 986 l 233 146 "},"Ĺ":{"ha":706,"x_min":0,"x_max":0,"o":"m 257 1058 l 128 1058 l 215 1275 l 353 1275 m 640 146 l 640 0 l 76 0 l 76 986 l 233 986 l 233 146 "},"Ľ":{"ha":688,"x_min":0,"x_max":0,"o":"m 640 146 l 640 0 l 76 0 l 76 986 l 233 986 l 233 146 m 474 611 l 340 611 l 458 950 l 594 950 "},"Ļ":{"ha":688,"x_min":0,"x_max":0,"o":"m 640 146 l 640 0 l 76 0 l 76 986 l 233 986 l 233 146 m 289 -56 l 424 -56 l 303 -394 l 169 -394 "},"Ŀ":{"ha":688,"x_min":0,"x_max":0,"o":"m 640 146 l 640 0 l 76 0 l 76 986 l 233 986 l 233 146 m 532 410 b 442 499 482 410 442 446 b 532 589 442 551 482 589 b 621 499 581 589 621 551 b 532 410 621 446 581 410 "},"Ł":{"ha":765,"x_min":0,"x_max":0,"o":"m 718 146 l 718 0 l 154 0 l 154 289 l 76 207 l 76 371 l 154 453 l 154 986 l 311 986 l 311 618 l 463 778 l 464 778 l 464 614 l 311 453 l 311 146 "},"M":{"ha":1200,"x_min":0,"x_max":0,"o":"m 76 986 l 250 986 l 600 201 l 951 986 l 1125 986 l 1125 0 l 968 0 l 968 681 l 961 681 l 658 0 l 542 0 l 240 681 l 233 681 l 233 0 l 76 0 "},"N":{"ha":974,"x_min":0,"x_max":0,"o":"m 76 986 l 233 986 l 733 260 l 740 260 l 740 986 l 897 986 l 897 0 l 739 0 l 240 726 l 233 726 l 233 0 l 76 0 "},"Ń":{"ha":974,"x_min":0,"x_max":0,"o":"m 517 1292 l 656 1292 l 558 1075 l 429 1075 m 76 986 l 233 986 l 733 260 l 740 260 l 740 986 l 897 986 l 897 0 l 739 0 l 240 726 l 233 726 l 233 0 l 76 0 "},"Ň":{"ha":974,"x_min":0,"x_max":0,"o":"m 478 1150 l 603 1292 l 679 1224 l 529 1051 l 426 1051 l 276 1224 l 353 1292 m 76 986 l 233 986 l 733 260 l 740 260 l 740 986 l 897 986 l 897 0 l 739 0 l 240 726 l 233 726 l 233 0 l 76 0 "},"Ņ":{"ha":974,"x_min":0,"x_max":0,"o":"m 76 986 l 233 986 l 733 260 l 740 260 l 740 986 l 897 986 l 897 0 l 739 0 l 240 726 l 233 726 l 233 0 l 76 0 m 419 -56 l 554 -56 l 433 -394 l 300 -394 "},"Ŋ":{"ha":967,"x_min":0,"x_max":0,"o":"m 890 71 l 883 67 l 883 38 b 568 -289 883 -201 724 -289 b 296 -147 442 -289 347 -233 l 397 -46 b 560 -137 431 -93 482 -137 b 726 57 631 -137 726 -103 l 233 686 l 233 0 l 76 0 l 76 972 l 197 972 l 726 293 l 726 711 l 732 711 l 731 972 l 890 972 "},"Ñ":{"ha":974,"x_min":0,"x_max":0,"o":"m 593 1090 b 407 1171 482 1090 475 1171 b 351 1122 376 1171 351 1154 l 235 1122 b 381 1283 235 1219 289 1283 b 567 1203 492 1283 499 1203 b 622 1251 597 1203 622 1219 l 739 1251 b 593 1090 739 1154 685 1090 m 76 986 l 233 986 l 733 260 l 740 260 l 740 986 l 897 986 l 897 0 l 739 0 l 240 726 l 233 726 l 233 0 l 76 0 "},"O":{"ha":1133,"x_min":0,"x_max":0,"o":"m 567 -14 b 63 493 294 -14 63 190 b 567 1000 63 796 294 1000 b 1071 493 838 1000 1071 796 b 567 -14 1071 190 838 -14 m 567 136 b 910 493 750 136 910 276 b 567 850 910 710 750 850 b 224 493 383 850 224 710 b 567 136 224 276 383 136 "},"Ó":{"ha":1133,"x_min":0,"x_max":0,"o":"m 596 1292 l 735 1292 l 638 1075 l 508 1075 m 567 -14 b 63 493 294 -14 63 190 b 567 1000 63 796 294 1000 b 1071 493 838 1000 1071 796 b 567 -14 1071 190 838 -14 m 567 136 b 910 493 750 136 910 276 b 567 850 910 710 750 850 b 224 493 383 850 224 710 b 567 136 224 276 383 136 "},"Ǒ":{"ha":1133,"x_min":0,"x_max":0,"o":"m 556 1150 l 681 1292 l 757 1224 l 607 1051 l 504 1051 l 354 1224 l 431 1292 m 567 -14 b 63 493 294 -14 63 190 b 567 1000 63 796 294 1000 b 1071 493 838 1000 1071 796 b 567 -14 1071 190 838 -14 m 567 136 b 910 493 750 136 910 276 b 567 850 910 710 750 850 b 224 493 383 850 224 710 b 567 136 224 276 383 136 "},"Ô":{"ha":1133,"x_min":0,"x_max":0,"o":"m 364 1119 l 514 1292 l 617 1292 l 767 1119 l 690 1051 l 565 1193 l 440 1051 m 567 -14 b 63 493 294 -14 63 190 b 567 1000 63 796 294 1000 b 1071 493 838 1000 1071 796 b 567 -14 1071 190 838 -14 m 567 136 b 910 493 750 136 910 276 b 567 850 910 710 750 850 b 224 493 383 850 224 710 b 567 136 224 276 383 136 "},"Ö":{"ha":1133,"x_min":0,"x_max":0,"o":"m 333 1265 l 478 1265 l 478 1113 l 333 1113 m 654 1265 l 799 1265 l 799 1113 l 654 1113 m 567 -14 b 63 493 294 -14 63 190 b 567 1000 63 796 294 1000 b 1071 493 838 1000 1071 796 b 567 -14 1071 190 838 -14 m 567 136 b 910 493 750 136 910 276 b 567 850 910 710 750 850 b 224 493 383 850 224 710 b 567 136 224 276 383 136 "},"Ò":{"ha":1133,"x_min":0,"x_max":0,"o":"m 496 1075 l 400 1292 l 538 1292 l 626 1075 m 567 -14 b 63 493 294 -14 63 190 b 567 1000 63 796 294 1000 b 1071 493 838 1000 1071 796 b 567 -14 1071 190 838 -14 m 567 136 b 910 493 750 136 910 276 b 567 850 910 710 750 850 b 224 493 383 850 224 710 b 567 136 224 276 383 136 "},"Ő":{"ha":1133,"x_min":0,"x_max":0,"o":"m 474 1292 l 613 1292 l 515 1075 l 386 1075 m 714 1292 l 851 1292 l 756 1075 l 626 1075 m 567 -14 b 63 493 294 -14 63 190 b 567 1000 63 796 294 1000 b 1071 493 838 1000 1071 796 b 567 -14 1071 190 838 -14 m 567 136 b 910 493 750 136 910 276 b 567 850 910 710 750 850 b 224 493 383 850 224 710 b 567 136 224 276 383 136 "},"Ō":{"ha":1133,"x_min":0,"x_max":0,"o":"m 308 1236 l 824 1236 l 824 1118 l 308 1118 m 567 -14 b 63 493 294 -14 63 190 b 567 1000 63 796 294 1000 b 1071 493 838 1000 1071 796 b 567 -14 1071 190 838 -14 m 567 136 b 910 493 750 136 910 276 b 567 850 910 710 750 850 b 224 493 383 850 224 710 b 567 136 224 276 383 136 "},"Ǫ":{"ha":1133,"x_min":0,"x_max":0,"o":"m 672 -3 b 499 -142 536 -44 499 -94 b 610 -206 499 -200 560 -225 l 610 -275 b 361 -162 533 -318 361 -300 b 490 -8 361 -97 408 -44 b 63 493 253 25 63 219 b 567 1000 63 796 294 1000 b 1071 493 838 1000 1071 796 b 672 -3 1071 231 896 42 m 224 493 b 567 136 224 276 383 136 b 910 493 750 136 910 276 b 567 850 910 710 750 850 b 224 493 383 850 224 710 "},"Ø":{"ha":1133,"x_min":0,"x_max":0,"o":"m 858 911 b 1071 493 986 822 1071 676 b 567 -14 1071 190 838 -14 b 425 6 518 -14 469 -7 l 389 -69 l 215 -69 l 282 71 b 63 493 150 157 63 307 b 567 1000 63 796 294 1000 b 717 978 618 1000 668 993 l 743 1035 l 918 1035 l 858 911 m 224 493 b 350 213 224 372 274 275 l 650 840 b 567 850 624 847 596 850 b 224 493 383 850 224 710 m 567 136 b 910 493 750 136 910 276 b 790 768 910 611 863 706 l 492 144 b 567 136 515 139 540 136 "},"Õ":{"ha":1133,"x_min":0,"x_max":0,"o":"m 671 1090 b 485 1171 560 1090 553 1171 b 429 1122 454 1171 429 1154 l 313 1122 b 458 1283 313 1219 367 1283 b 644 1203 569 1283 576 1203 b 700 1251 675 1203 700 1219 l 817 1251 b 671 1090 817 1154 763 1090 m 567 -14 b 63 493 294 -14 63 190 b 567 1000 63 796 294 1000 b 1071 493 838 1000 1071 796 b 567 -14 1071 190 838 -14 m 567 136 b 910 493 750 136 910 276 b 567 850 910 710 750 850 b 224 493 383 850 224 710 b 567 136 224 276 383 136 "},"Œ":{"ha":1528,"x_min":0,"x_max":0,"o":"m 1472 146 l 1472 0 l 915 0 l 915 121 b 567 -14 824 35 700 -14 b 63 493 294 -14 63 190 b 567 1000 63 796 294 1000 b 915 865 700 1000 824 951 l 915 986 l 1460 986 l 1460 840 l 1072 840 l 1072 567 l 1401 567 l 1401 425 l 1072 425 l 1072 146 m 567 136 b 910 493 750 136 910 276 b 567 850 910 710 750 850 b 224 493 383 850 224 710 b 567 136 224 276 383 136 "},"P":{"ha":807,"x_min":0,"x_max":0,"o":"m 413 986 b 758 657 625 986 758 853 b 413 329 758 463 625 329 l 233 329 l 233 0 l 76 0 l 76 986 l 413 986 m 397 475 b 599 657 518 475 599 531 b 397 840 599 783 518 840 l 233 840 l 233 475 l 397 475 "},"Þ":{"ha":856,"x_min":0,"x_max":0,"o":"m 464 792 b 808 496 681 792 808 685 b 464 200 808 307 681 200 l 233 200 l 233 0 l 76 0 l 76 986 l 233 986 l 233 792 l 464 792 m 453 335 b 651 496 574 335 651 374 b 453 657 651 618 574 657 l 233 657 l 233 335 l 453 335 "},"Q":{"ha":1133,"x_min":0,"x_max":0,"o":"m 1071 493 b 938 143 1071 351 1019 231 l 1051 0 l 872 0 l 828 56 b 567 -14 751 11 661 -14 b 63 493 294 -14 63 190 b 567 1000 63 796 294 1000 b 1071 493 838 1000 1071 796 m 567 136 b 732 178 625 136 682 150 l 536 424 l 715 424 l 838 269 b 910 493 883 328 910 404 b 567 850 910 710 750 850 b 224 493 383 850 224 710 b 567 136 224 276 383 136 "},"R":{"ha":842,"x_min":0,"x_max":0,"o":"m 626 0 l 411 338 l 410 338 l 233 338 l 233 0 l 76 0 l 76 986 l 410 986 b 751 657 618 986 751 853 b 558 363 751 514 679 408 l 794 0 m 233 475 l 392 475 b 592 657 513 475 592 531 b 392 840 592 783 513 840 l 233 840 "},"Ŕ":{"ha":842,"x_min":0,"x_max":0,"o":"m 471 1075 l 342 1075 l 429 1292 l 568 1292 m 626 0 l 411 338 l 410 338 l 233 338 l 233 0 l 76 0 l 76 986 l 410 986 b 751 657 618 986 751 853 b 558 363 751 514 679 408 l 794 0 m 233 475 l 392 475 b 592 657 513 475 592 531 b 392 840 592 783 513 840 l 233 840 "},"Ř":{"ha":842,"x_min":0,"x_max":0,"o":"m 339 1051 l 189 1224 l 265 1292 l 390 1150 l 515 1292 l 592 1224 l 442 1051 m 626 0 l 411 338 l 410 338 l 233 338 l 233 0 l 76 0 l 76 986 l 410 986 b 751 657 618 986 751 853 b 558 363 751 514 679 408 l 794 0 m 233 475 l 392 475 b 592 657 513 475 592 531 b 392 840 592 783 513 840 l 233 840 "},"Ŗ":{"ha":842,"x_min":0,"x_max":0,"o":"m 794 0 l 626 0 l 411 338 l 410 338 l 233 338 l 233 0 l 76 0 l 76 986 l 410 986 b 751 657 618 986 751 853 b 558 363 751 514 679 408 m 233 475 l 392 475 b 592 657 513 475 592 531 b 392 840 592 783 513 840 l 233 840 m 354 -56 l 489 -56 l 368 -394 l 235 -394 "},"S":{"ha":751,"x_min":0,"x_max":0,"o":"m 381 -14 b 42 229 211 -14 76 86 l 169 288 b 379 131 197 199 271 131 b 547 276 469 131 547 178 b 383 443 547 363 490 400 l 319 468 b 79 740 179 524 79 600 b 374 1000 79 900 211 1000 b 682 793 542 1000 640 899 l 564 729 b 379 858 524 813 464 858 b 235 739 299 858 235 815 b 382 589 235 679 271 633 l 449 563 b 710 275 617 496 710 419 b 381 -14 710 83 546 -14 "},"Ś":{"ha":751,"x_min":0,"x_max":0,"o":"m 403 1292 l 542 1292 l 444 1075 l 315 1075 m 381 -14 b 42 229 211 -14 76 86 l 169 288 b 379 131 197 199 271 131 b 547 276 469 131 547 178 b 383 443 547 363 490 400 l 319 468 b 79 740 179 524 79 600 b 374 1000 79 900 211 1000 b 682 793 542 1000 640 899 l 564 729 b 379 858 524 813 464 858 b 235 739 299 858 235 815 b 382 589 235 679 271 633 l 449 563 b 710 275 617 496 710 419 b 381 -14 710 83 546 -14 "},"Š":{"ha":751,"x_min":0,"x_max":0,"o":"m 364 1150 l 489 1292 l 565 1224 l 415 1051 l 313 1051 l 163 1224 l 239 1292 m 381 -14 b 42 229 211 -14 76 86 l 169 288 b 379 131 197 199 271 131 b 547 276 469 131 547 178 b 383 443 547 363 490 400 l 319 468 b 79 740 179 524 79 600 b 374 1000 79 900 211 1000 b 682 793 542 1000 640 899 l 564 729 b 379 858 524 813 464 858 b 235 739 299 858 235 815 b 382 589 235 679 271 633 l 449 563 b 710 275 617 496 710 419 b 381 -14 710 83 546 -14 "},"Ş":{"ha":751,"x_min":0,"x_max":0,"o":"m 710 275 b 422 -12 710 100 572 3 l 392 -56 b 517 -174 467 -57 517 -107 b 274 -301 517 -278 392 -328 l 274 -247 b 403 -185 349 -250 403 -236 b 283 -124 403 -146 371 -112 l 264 -86 l 311 -8 b 42 229 175 15 72 106 l 169 288 b 379 131 197 199 271 131 b 547 276 469 131 547 178 b 383 443 547 363 490 400 l 319 468 b 79 740 179 524 79 600 b 374 1000 79 900 211 1000 b 682 793 542 1000 640 899 l 564 729 b 379 858 524 813 464 858 b 235 739 299 858 235 815 b 382 589 235 679 271 633 l 449 563 b 710 275 617 496 710 419 "},"Ș":{"ha":751,"x_min":0,"x_max":0,"o":"m 381 -14 b 42 229 211 -14 76 86 l 169 288 b 379 131 197 199 271 131 b 547 276 469 131 547 178 b 383 443 547 363 490 400 l 319 468 b 79 740 179 524 79 600 b 374 1000 79 900 211 1000 b 682 793 542 1000 640 899 l 564 729 b 379 858 524 813 464 858 b 235 739 299 858 235 815 b 382 589 235 679 271 633 l 449 563 b 710 275 617 496 710 419 b 381 -14 710 83 546 -14 m 306 -56 l 440 -56 l 319 -394 l 186 -394 "},"Ə":{"ha":1082,"x_min":0,"x_max":0,"o":"m 515 1000 b 1021 493 789 1000 1021 797 b 518 -14 1021 189 790 -14 b 65 517 251 -14 31 183 l 857 517 b 510 851 846 722 693 851 b 239 715 411 851 313 815 l 126 796 b 515 1000 231 957 389 1000 m 506 135 b 843 385 665 135 800 229 l 217 385 b 506 135 243 206 365 135 "},"T":{"ha":736,"x_min":0,"x_max":0,"o":"m 696 840 l 447 840 l 447 0 l 290 0 l 290 840 l 42 840 l 42 986 l 696 986 "},"Ŧ":{"ha":736,"x_min":0,"x_max":0,"o":"m 447 840 l 447 679 l 642 679 l 642 533 l 447 533 l 447 0 l 290 0 l 290 533 l 110 533 l 110 679 l 290 679 l 290 840 l 42 840 l 42 986 l 696 986 l 696 840 "},"Ť":{"ha":736,"x_min":0,"x_max":0,"o":"m 308 1051 l 158 1224 l 235 1292 l 360 1150 l 485 1292 l 561 1224 l 411 1051 m 696 840 l 447 840 l 447 0 l 290 0 l 290 840 l 42 840 l 42 986 l 696 986 "},"Ţ":{"ha":736,"x_min":0,"x_max":0,"o":"m 447 840 l 447 0 l 465 0 l 400 -61 b 528 -176 463 -69 528 -108 b 257 -294 528 -282 404 -331 l 271 -253 b 404 -176 357 -269 404 -222 b 304 -126 404 -136 354 -94 l 257 -82 l 308 0 l 290 0 l 290 840 l 42 840 l 42 986 l 696 986 l 696 840 "},"Ț":{"ha":736,"x_min":0,"x_max":0,"o":"m 696 840 l 447 840 l 447 0 l 290 0 l 290 840 l 42 840 l 42 986 l 696 986 m 303 -56 l 438 -56 l 317 -394 l 183 -394 "},"U":{"ha":879,"x_min":0,"x_max":0,"o":"m 439 -14 b 76 361 236 -14 76 118 l 76 986 l 233 986 l 233 361 b 439 135 233 196 333 135 b 646 361 546 135 646 196 l 646 986 l 803 986 l 803 361 b 439 -14 803 118 643 -14 "},"Ú":{"ha":879,"x_min":0,"x_max":0,"o":"m 469 1292 l 608 1292 l 511 1075 l 382 1075 m 439 -14 b 76 361 236 -14 76 118 l 76 986 l 233 986 l 233 361 b 439 135 233 196 333 135 b 646 361 546 135 646 196 l 646 986 l 803 986 l 803 361 b 439 -14 803 118 643 -14 "},"Ŭ":{"ha":879,"x_min":0,"x_max":0,"o":"m 440 1081 b 231 1292 289 1081 229 1189 l 343 1292 b 440 1188 343 1238 369 1188 b 538 1292 510 1188 538 1238 l 650 1292 b 440 1081 651 1189 590 1081 m 439 -14 b 76 361 236 -14 76 118 l 76 986 l 233 986 l 233 361 b 439 135 233 196 333 135 b 646 361 546 135 646 196 l 646 986 l 803 986 l 803 361 b 439 -14 803 118 643 -14 "},"Ǔ":{"ha":879,"x_min":0,"x_max":0,"o":"m 431 1150 l 556 1292 l 632 1224 l 482 1051 l 379 1051 l 229 1224 l 306 1292 m 439 -14 b 76 361 236 -14 76 118 l 76 986 l 233 986 l 233 361 b 439 135 233 196 333 135 b 646 361 546 135 646 196 l 646 986 l 803 986 l 803 361 b 439 -14 803 118 643 -14 "},"Û":{"ha":879,"x_min":0,"x_max":0,"o":"m 238 1119 l 388 1292 l 490 1292 l 640 1119 l 564 1051 l 439 1193 l 314 1051 m 439 -14 b 76 361 236 -14 76 118 l 76 986 l 233 986 l 233 361 b 439 135 233 196 333 135 b 646 361 546 135 646 196 l 646 986 l 803 986 l 803 361 b 439 -14 803 118 643 -14 "},"Ü":{"ha":879,"x_min":0,"x_max":0,"o":"m 207 1265 l 351 1265 l 351 1113 l 207 1113 m 528 1265 l 672 1265 l 672 1113 l 528 1113 m 439 -14 b 76 361 236 -14 76 118 l 76 986 l 233 986 l 233 361 b 439 135 233 196 333 135 b 646 361 546 135 646 196 l 646 986 l 803 986 l 803 361 b 439 -14 803 118 643 -14 "},"Ù":{"ha":879,"x_min":0,"x_max":0,"o":"m 371 1075 l 275 1292 l 413 1292 l 501 1075 m 439 -14 b 76 361 236 -14 76 118 l 76 986 l 233 986 l 233 361 b 439 135 233 196 333 135 b 646 361 546 135 646 196 l 646 986 l 803 986 l 803 361 b 439 -14 803 118 643 -14 "},"Ű":{"ha":879,"x_min":0,"x_max":0,"o":"m 347 1292 l 486 1292 l 389 1075 l 260 1075 m 588 1292 l 725 1292 l 629 1075 l 500 1075 m 439 -14 b 76 361 236 -14 76 118 l 76 986 l 233 986 l 233 361 b 439 135 233 196 333 135 b 646 361 546 135 646 196 l 646 986 l 803 986 l 803 361 b 439 -14 803 118 643 -14 "},"Ū":{"ha":879,"x_min":0,"x_max":0,"o":"m 182 1236 l 697 1236 l 697 1118 l 182 1118 m 439 -14 b 76 361 236 -14 76 118 l 76 986 l 233 986 l 233 361 b 439 135 233 196 333 135 b 646 361 546 135 646 196 l 646 986 l 803 986 l 803 361 b 439 -14 803 118 643 -14 "},"Ų":{"ha":879,"x_min":0,"x_max":0,"o":"m 803 986 l 803 361 b 547 0 803 164 697 39 b 363 -142 403 -42 363 -93 b 474 -206 363 -200 425 -225 l 474 -275 b 225 -162 399 -318 225 -300 b 360 -7 225 -96 275 -42 b 76 361 196 24 76 151 l 76 986 l 233 986 l 233 361 b 439 135 233 196 333 135 b 646 361 546 135 646 196 l 646 986 "},"Ů":{"ha":879,"x_min":0,"x_max":0,"o":"m 440 1079 b 296 1221 357 1079 296 1143 b 440 1364 296 1300 357 1364 b 581 1221 518 1364 581 1300 b 440 1079 581 1143 518 1079 m 438 1178 b 482 1221 463 1178 482 1197 b 438 1265 482 1246 463 1265 b 396 1221 413 1265 396 1246 b 438 1178 396 1197 413 1178 m 439 -14 b 76 361 236 -14 76 118 l 76 986 l 233 986 l 233 361 b 439 135 233 196 333 135 b 646 361 546 135 646 196 l 646 986 l 803 986 l 803 361 b 439 -14 803 118 643 -14 "},"Ũ":{"ha":879,"x_min":0,"x_max":0,"o":"m 546 1090 b 360 1171 435 1090 428 1171 b 304 1122 329 1171 304 1154 l 188 1122 b 333 1283 188 1219 242 1283 b 519 1203 444 1283 451 1203 b 575 1251 550 1203 575 1219 l 692 1251 b 546 1090 692 1154 638 1090 m 439 -14 b 76 361 236 -14 76 118 l 76 986 l 233 986 l 233 361 b 439 135 233 196 333 135 b 646 361 546 135 646 196 l 646 986 l 803 986 l 803 361 b 439 -14 803 118 643 -14 "},"V":{"ha":989,"x_min":0,"x_max":0,"o":"m 28 986 l 197 986 l 494 199 l 792 986 l 961 986 l 575 0 l 413 0 "},"W":{"ha":1401,"x_min":0,"x_max":0,"o":"m 35 986 l 200 986 l 410 274 l 639 986 l 764 986 l 992 274 l 1203 986 l 1368 986 l 1065 0 l 939 0 l 701 718 l 463 0 l 338 0 "},"Ẃ":{"ha":1401,"x_min":0,"x_max":0,"o":"m 732 1292 l 871 1292 l 774 1075 l 644 1075 m 35 986 l 200 986 l 410 274 l 639 986 l 764 986 l 992 274 l 1203 986 l 1368 986 l 1065 0 l 939 0 l 701 718 l 463 0 l 338 0 "},"Ŵ":{"ha":1401,"x_min":0,"x_max":0,"o":"m 500 1119 l 650 1292 l 753 1292 l 903 1119 l 826 1051 l 701 1193 l 576 1051 m 35 986 l 200 986 l 410 274 l 639 986 l 764 986 l 992 274 l 1203 986 l 1368 986 l 1065 0 l 939 0 l 701 718 l 463 0 l 338 0 "},"Ẅ":{"ha":1401,"x_min":0,"x_max":0,"o":"m 468 1265 l 613 1265 l 613 1113 l 468 1113 m 789 1265 l 933 1265 l 933 1113 l 789 1113 m 35 986 l 200 986 l 410 274 l 639 986 l 764 986 l 992 274 l 1203 986 l 1368 986 l 1065 0 l 939 0 l 701 718 l 463 0 l 338 0 "},"Ẁ":{"ha":1401,"x_min":0,"x_max":0,"o":"m 632 1075 l 536 1292 l 674 1292 l 763 1075 m 35 986 l 200 986 l 410 274 l 639 986 l 764 986 l 992 274 l 1203 986 l 1368 986 l 1065 0 l 939 0 l 701 718 l 463 0 l 338 0 "},"X":{"ha":919,"x_min":0,"x_max":0,"o":"m 708 0 l 460 367 l 211 0 l 28 0 l 368 503 l 40 986 l 225 986 l 461 639 l 696 986 l 879 986 l 553 503 l 893 0 "},"Y":{"ha":935,"x_min":0,"x_max":0,"o":"m 389 410 l 35 986 l 213 986 l 467 557 l 722 986 l 900 986 l 546 410 l 546 0 l 389 0 "},"Ý":{"ha":935,"x_min":0,"x_max":0,"o":"m 497 1292 l 636 1292 l 539 1075 l 410 1075 m 389 410 l 35 986 l 213 986 l 467 557 l 722 986 l 900 986 l 546 410 l 546 0 l 389 0 "},"Ŷ":{"ha":935,"x_min":0,"x_max":0,"o":"m 265 1119 l 415 1292 l 518 1292 l 668 1119 l 592 1051 l 467 1193 l 342 1051 m 389 410 l 35 986 l 213 986 l 467 557 l 722 986 l 900 986 l 546 410 l 546 0 l 389 0 "},"Ÿ":{"ha":935,"x_min":0,"x_max":0,"o":"m 235 1265 l 379 1265 l 379 1113 l 235 1113 m 556 1265 l 700 1265 l 700 1113 l 556 1113 m 389 410 l 35 986 l 213 986 l 467 557 l 722 986 l 900 986 l 546 410 l 546 0 l 389 0 "},"Ỳ":{"ha":935,"x_min":0,"x_max":0,"o":"m 399 1075 l 303 1292 l 440 1292 l 529 1075 m 389 410 l 35 986 l 213 986 l 467 557 l 722 986 l 900 986 l 546 410 l 546 0 l 389 0 "},"Z":{"ha":814,"x_min":0,"x_max":0,"o":"m 533 840 l 51 840 l 51 986 l 779 986 l 274 146 l 767 146 l 767 0 l 28 0 "},"Ź":{"ha":814,"x_min":0,"x_max":0,"o":"m 419 1292 l 558 1292 l 461 1075 l 332 1075 m 533 840 l 51 840 l 51 986 l 779 986 l 274 146 l 767 146 l 767 0 l 28 0 "},"Ž":{"ha":814,"x_min":0,"x_max":0,"o":"m 379 1150 l 504 1292 l 581 1224 l 431 1051 l 328 1051 l 178 1224 l 254 1292 m 533 840 l 51 840 l 51 986 l 779 986 l 274 146 l 767 146 l 767 0 l 28 0 "},"Ż":{"ha":814,"x_min":0,"x_max":0,"o":"m 313 1265 l 467 1265 l 467 1113 l 313 1113 m 533 840 l 51 840 l 51 986 l 779 986 l 274 146 l 767 146 l 767 0 l 28 0 "},"a":{"ha":875,"x_min":0,"x_max":0,"o":"m 392 -14 b 42 361 221 -14 42 113 b 392 736 42 610 221 736 b 642 607 524 736 615 664 l 646 607 l 646 722 l 799 722 l 799 0 l 646 0 l 646 115 l 642 115 b 392 -14 615 58 524 -14 m 421 125 b 650 361 538 125 650 206 b 421 597 650 517 538 597 b 193 361 306 597 193 517 b 421 125 193 206 306 125 "},"á":{"ha":875,"x_min":0,"x_max":0,"o":"m 456 1028 l 594 1028 l 497 811 l 368 811 m 392 -14 b 42 361 221 -14 42 113 b 392 736 42 610 221 736 b 642 607 524 736 615 664 l 646 607 l 646 722 l 799 722 l 799 0 l 646 0 l 646 115 l 642 115 b 392 -14 615 58 524 -14 m 421 125 b 650 361 538 125 650 206 b 421 597 650 517 538 597 b 193 361 306 597 193 517 b 421 125 193 206 306 125 "},"ă":{"ha":875,"x_min":0,"x_max":0,"o":"m 425 817 b 215 1028 274 817 214 925 l 328 1028 b 425 924 328 974 354 924 b 522 1028 494 924 522 974 l 635 1028 b 425 817 636 925 575 817 m 392 -14 b 42 361 221 -14 42 113 b 392 736 42 610 221 736 b 642 607 524 736 615 664 l 646 607 l 646 722 l 799 722 l 799 0 l 646 0 l 646 115 l 642 115 b 392 -14 615 58 524 -14 m 421 125 b 650 361 538 125 650 206 b 421 597 650 517 538 597 b 193 361 306 597 193 517 b 421 125 193 206 306 125 "},"ǎ":{"ha":875,"x_min":0,"x_max":0,"o":"m 417 886 l 542 1028 l 618 960 l 468 788 l 365 788 l 215 960 l 292 1028 m 392 -14 b 42 361 221 -14 42 113 b 392 736 42 610 221 736 b 642 607 524 736 615 664 l 646 607 l 646 722 l 799 722 l 799 0 l 646 0 l 646 115 l 642 115 b 392 -14 615 58 524 -14 m 421 125 b 650 361 538 125 650 206 b 421 597 650 517 538 597 b 193 361 306 597 193 517 b 421 125 193 206 306 125 "},"â":{"ha":875,"x_min":0,"x_max":0,"o":"m 224 856 l 374 1028 l 476 1028 l 626 856 l 550 788 l 425 929 l 300 788 m 392 -14 b 42 361 221 -14 42 113 b 392 736 42 610 221 736 b 642 607 524 736 615 664 l 646 607 l 646 722 l 799 722 l 799 0 l 646 0 l 646 115 l 642 115 b 392 -14 615 58 524 -14 m 421 125 b 650 361 538 125 650 206 b 421 597 650 517 538 597 b 193 361 306 597 193 517 b 421 125 193 206 306 125 "},"ä":{"ha":875,"x_min":0,"x_max":0,"o":"m 193 1001 l 338 1001 l 338 849 l 193 849 m 514 1001 l 658 1001 l 658 849 l 514 849 m 392 -14 b 42 361 221 -14 42 113 b 392 736 42 610 221 736 b 642 607 524 736 615 664 l 646 607 l 646 722 l 799 722 l 799 0 l 646 0 l 646 115 l 642 115 b 392 -14 615 58 524 -14 m 421 125 b 650 361 538 125 650 206 b 421 597 650 517 538 597 b 193 361 306 597 193 517 b 421 125 193 206 306 125 "},"à":{"ha":875,"x_min":0,"x_max":0,"o":"m 357 811 l 261 1028 l 399 1028 l 488 811 m 392 -14 b 42 361 221 -14 42 113 b 392 736 42 610 221 736 b 642 607 524 736 615 664 l 646 607 l 646 722 l 799 722 l 799 0 l 646 0 l 646 115 l 642 115 b 392 -14 615 58 524 -14 m 421 125 b 650 361 538 125 650 206 b 421 597 650 517 538 597 b 193 361 306 597 193 517 b 421 125 193 206 306 125 "},"ā":{"ha":875,"x_min":0,"x_max":0,"o":"m 168 972 l 683 972 l 683 854 l 168 854 m 392 -14 b 42 361 221 -14 42 113 b 392 736 42 610 221 736 b 642 607 524 736 615 664 l 646 607 l 646 722 l 799 722 l 799 0 l 646 0 l 646 115 l 642 115 b 392 -14 615 58 524 -14 m 421 125 b 650 361 538 125 650 206 b 421 597 650 517 538 597 b 193 361 306 597 193 517 b 421 125 193 206 306 125 "},"ą":{"ha":875,"x_min":0,"x_max":0,"o":"m 614 -142 b 725 -206 614 -200 676 -225 l 725 -275 b 476 -162 650 -318 476 -300 b 646 6 476 -86 540 -28 l 646 115 l 642 115 b 392 -14 615 58 524 -14 b 42 361 221 -14 42 113 b 392 736 42 610 221 736 b 642 607 524 736 615 664 l 646 607 l 646 722 l 799 722 l 799 0 l 800 0 b 614 -142 654 -42 614 -93 m 421 125 b 650 361 538 125 650 206 b 421 597 650 517 538 597 b 193 361 306 597 193 517 b 421 125 193 206 306 125 "},"å":{"ha":875,"x_min":0,"x_max":0,"o":"m 426 815 b 282 957 343 815 282 879 b 426 1100 282 1036 343 1100 b 567 957 504 1100 567 1036 b 426 815 567 879 504 815 m 424 914 b 468 957 449 914 468 933 b 424 1001 468 982 449 1001 b 382 957 399 1001 382 982 b 424 914 382 933 399 914 m 392 -14 b 42 361 221 -14 42 113 b 392 736 42 610 221 736 b 642 607 524 736 615 664 l 646 607 l 646 722 l 799 722 l 799 0 l 646 0 l 646 115 l 642 115 b 392 -14 615 58 524 -14 m 421 125 b 650 361 538 125 650 206 b 421 597 650 517 538 597 b 193 361 306 597 193 517 b 421 125 193 206 306 125 "},"ã":{"ha":875,"x_min":0,"x_max":0,"o":"m 531 826 b 344 907 419 826 413 907 b 289 858 314 907 289 890 l 172 858 b 318 1019 172 956 226 1019 b 504 939 429 1019 436 939 b 560 988 535 939 560 956 l 676 988 b 531 826 676 890 622 826 m 392 -14 b 42 361 221 -14 42 113 b 392 736 42 610 221 736 b 642 607 524 736 615 664 l 646 607 l 646 722 l 799 722 l 799 0 l 646 0 l 646 115 l 642 115 b 392 -14 615 58 524 -14 m 421 125 b 650 361 538 125 650 206 b 421 597 650 517 538 597 b 193 361 306 597 193 517 b 421 125 193 206 306 125 "},"æ":{"ha":1407,"x_min":0,"x_max":0,"o":"m 799 303 l 799 283 b 1040 114 828 171 924 114 b 1240 189 1118 114 1188 139 l 1313 114 b 1024 -14 1250 36 1146 -14 b 799 56 942 -14 863 10 l 799 0 l 646 0 l 646 115 l 642 115 b 392 -14 615 58 524 -14 b 42 361 221 -14 42 113 b 392 736 42 610 221 736 b 642 607 524 736 615 664 l 646 607 l 646 722 l 799 722 l 799 669 b 1013 736 861 714 936 736 b 1361 303 1196 736 1397 606 m 1014 606 b 799 442 919 606 828 551 l 799 417 l 1225 417 b 1014 606 1217 542 1117 606 m 421 125 b 650 361 538 125 650 206 b 421 597 650 517 538 597 b 193 361 306 597 193 517 b 421 125 193 206 306 125 "},"b":{"ha":875,"x_min":0,"x_max":0,"o":"m 483 736 b 833 361 654 736 833 610 b 483 -14 833 113 654 -14 b 233 115 351 -14 260 58 l 229 115 l 229 0 l 76 0 l 76 986 l 229 986 l 229 607 l 233 607 b 483 736 260 664 351 736 m 454 125 b 682 361 569 125 682 206 b 454 597 682 517 569 597 b 225 361 338 597 225 517 b 454 125 225 206 338 125 "},"c":{"ha":769,"x_min":0,"x_max":0,"o":"m 419 -14 b 42 361 231 -14 42 118 b 419 736 42 604 231 736 b 729 558 546 736 663 676 l 615 488 b 421 596 574 554 503 596 b 193 361 304 596 193 510 b 421 126 193 213 304 126 b 615 235 503 126 574 168 l 729 164 b 419 -14 663 47 546 -14 "},"ć":{"ha":769,"x_min":0,"x_max":0,"o":"m 431 1028 l 569 1028 l 472 811 l 343 811 m 419 -14 b 42 361 231 -14 42 118 b 419 736 42 604 231 736 b 729 558 546 736 663 676 l 615 488 b 421 596 574 554 503 596 b 193 361 304 596 193 510 b 421 126 193 213 304 126 b 615 235 503 126 574 168 l 729 164 b 419 -14 663 47 546 -14 "},"č":{"ha":769,"x_min":0,"x_max":0,"o":"m 392 886 l 517 1028 l 593 960 l 443 788 l 340 788 l 190 960 l 267 1028 m 419 -14 b 42 361 231 -14 42 118 b 419 736 42 604 231 736 b 729 558 546 736 663 676 l 615 488 b 421 596 574 554 503 596 b 193 361 304 596 193 510 b 421 126 193 213 304 126 b 615 235 503 126 574 168 l 729 164 b 419 -14 663 47 546 -14 "},"ç":{"ha":769,"x_min":0,"x_max":0,"o":"m 421 126 b 615 235 503 126 574 168 l 729 164 b 469 -11 671 63 576 3 l 439 -54 b 564 -172 514 -56 564 -106 b 321 -300 564 -276 439 -326 l 321 -246 b 450 -183 396 -249 450 -235 b 331 -122 450 -144 418 -111 l 311 -85 l 357 -10 b 42 361 192 17 42 144 b 419 736 42 604 231 736 b 729 558 546 736 663 676 l 615 488 b 421 596 574 554 503 596 b 193 361 304 596 193 510 b 421 126 193 213 304 126 "},"ċ":{"ha":769,"x_min":0,"x_max":0,"o":"m 325 1001 l 479 1001 l 479 849 l 325 849 m 419 -14 b 42 361 231 -14 42 118 b 419 736 42 604 231 736 b 729 558 546 736 663 676 l 615 488 b 421 596 574 554 503 596 b 193 361 304 596 193 510 b 421 126 193 213 304 126 b 615 235 503 126 574 168 l 729 164 b 419 -14 663 47 546 -14 "},"d":{"ha":875,"x_min":0,"x_max":0,"o":"m 799 986 l 799 0 l 646 0 l 646 115 l 642 115 b 392 -14 615 58 524 -14 b 42 361 221 -14 42 113 b 392 736 42 610 221 736 b 642 607 524 736 615 664 l 644 607 l 644 986 m 421 125 b 650 361 538 125 650 206 b 421 597 650 517 538 597 b 193 361 306 597 193 517 b 421 125 193 206 306 125 "},"ð":{"ha":840,"x_min":0,"x_max":0,"o":"m 601 808 b 764 350 713 654 764 522 b 394 -14 764 107 585 -14 b 42 350 219 -14 42 107 b 394 722 42 594 192 722 b 513 692 453 722 488 713 l 444 783 l 315 763 l 315 839 l 394 851 l 306 972 l 479 972 l 551 876 l 681 897 l 681 821 l 601 808 m 394 122 b 607 350 508 122 607 189 b 394 586 607 522 513 586 b 199 350 288 586 199 522 b 394 122 199 189 303 122 "},"ď":{"ha":900,"x_min":0,"x_max":0,"o":"m 1083 997 l 986 781 l 857 781 l 944 997 m 644 986 l 799 986 l 799 0 l 646 0 l 646 115 l 642 115 b 392 -14 615 58 524 -14 b 42 361 221 -14 42 113 b 392 736 42 610 221 736 b 642 607 524 736 615 664 l 644 607 m 421 125 b 650 361 538 125 650 206 b 421 597 650 517 538 597 b 193 361 306 597 193 517 b 421 125 193 206 306 125 "},"đ":{"ha":883,"x_min":0,"x_max":0,"o":"m 863 789 l 799 789 l 799 0 l 646 0 l 646 115 l 642 115 b 392 -14 615 58 524 -14 b 42 361 221 -14 42 113 b 392 736 42 610 221 736 b 642 607 524 736 615 664 l 644 607 l 644 789 l 371 789 l 371 901 l 644 901 l 644 986 l 799 986 l 799 901 l 863 901 m 421 125 b 650 361 538 125 650 206 b 421 597 650 517 538 597 b 193 361 306 597 193 517 b 421 125 193 206 306 125 "},"e":{"ha":799,"x_min":0,"x_max":0,"o":"m 404 736 b 753 303 588 736 788 606 l 186 303 b 432 114 210 178 308 114 b 632 189 510 114 579 139 l 704 114 b 415 -14 642 36 538 -14 b 42 361 219 -14 42 121 b 404 736 42 604 221 736 m 406 606 b 185 417 304 606 207 544 l 617 417 b 406 606 608 542 508 606 "},"é":{"ha":799,"x_min":0,"x_max":0,"o":"m 474 811 l 344 811 l 432 1028 l 571 1028 m 404 736 b 753 303 588 736 788 606 l 186 303 b 432 114 210 178 308 114 b 632 189 510 114 579 139 l 704 114 b 415 -14 642 36 538 -14 b 42 361 219 -14 42 121 b 404 736 42 604 221 736 m 406 606 b 185 417 304 606 207 544 l 617 417 b 406 606 608 542 508 606 "},"ě":{"ha":799,"x_min":0,"x_max":0,"o":"m 342 788 l 192 960 l 268 1028 l 393 886 l 518 1028 l 594 960 l 444 788 m 404 736 b 753 303 588 736 788 606 l 186 303 b 432 114 210 178 308 114 b 632 189 510 114 579 139 l 704 114 b 415 -14 642 36 538 -14 b 42 361 219 -14 42 121 b 404 736 42 604 221 736 m 406 606 b 185 417 304 606 207 544 l 617 417 b 406 606 608 542 508 606 "},"ê":{"ha":799,"x_min":0,"x_max":0,"o":"m 276 788 l 200 856 l 350 1028 l 453 1028 l 603 856 l 526 788 l 401 929 m 404 736 b 753 303 588 736 788 606 l 186 303 b 432 114 210 178 308 114 b 632 189 510 114 579 139 l 704 114 b 415 -14 642 36 538 -14 b 42 361 219 -14 42 121 b 404 736 42 604 221 736 m 406 606 b 185 417 304 606 207 544 l 617 417 b 406 606 608 542 508 606 "},"ë":{"ha":799,"x_min":0,"x_max":0,"o":"m 314 849 l 169 849 l 169 1001 l 314 1001 m 635 849 l 490 849 l 490 1001 l 635 1001 m 404 736 b 753 303 588 736 788 606 l 186 303 b 432 114 210 178 308 114 b 632 189 510 114 579 139 l 704 114 b 415 -14 642 36 538 -14 b 42 361 219 -14 42 121 b 404 736 42 604 221 736 m 406 606 b 185 417 304 606 207 544 l 617 417 b 406 606 608 542 508 606 "},"ė":{"ha":799,"x_min":0,"x_max":0,"o":"m 481 849 l 326 849 l 326 1001 l 481 1001 m 404 736 b 753 303 588 736 788 606 l 186 303 b 432 114 210 178 308 114 b 632 189 510 114 579 139 l 704 114 b 415 -14 642 36 538 -14 b 42 361 219 -14 42 121 b 404 736 42 604 221 736 m 406 606 b 185 417 304 606 207 544 l 617 417 b 406 606 608 542 508 606 "},"è":{"ha":799,"x_min":0,"x_max":0,"o":"m 333 811 l 238 1028 l 375 1028 l 464 811 m 404 736 b 753 303 588 736 788 606 l 186 303 b 432 114 210 178 308 114 b 632 189 510 114 579 139 l 704 114 b 415 -14 642 36 538 -14 b 42 361 219 -14 42 121 b 404 736 42 604 221 736 m 406 606 b 185 417 304 606 207 544 l 617 417 b 406 606 608 542 508 606 "},"ē":{"ha":799,"x_min":0,"x_max":0,"o":"m 660 854 l 144 854 l 144 972 l 660 972 m 404 736 b 753 303 588 736 788 606 l 186 303 b 432 114 210 178 308 114 b 632 189 510 114 579 139 l 704 114 b 415 -14 642 36 538 -14 b 42 361 219 -14 42 121 b 404 736 42 604 221 736 m 406 606 b 185 417 304 606 207 544 l 617 417 b 406 606 608 542 508 606 "},"ę":{"ha":799,"x_min":0,"x_max":0,"o":"m 404 736 b 753 303 588 736 788 606 l 186 303 b 432 114 210 178 308 114 b 632 189 510 114 579 139 l 704 114 b 524 0 661 60 599 19 b 338 -142 378 -42 338 -93 b 449 -206 338 -200 400 -225 l 449 -275 b 200 -162 374 -318 200 -300 b 336 -7 200 -96 250 -42 b 42 361 174 25 42 154 b 404 736 42 604 221 736 m 406 606 b 185 417 304 606 207 544 l 617 417 b 406 606 608 542 508 606 "},"ə":{"ha":799,"x_min":0,"x_max":0,"o":"m 383 736 b 758 361 579 736 758 601 b 394 -14 758 118 578 -14 b 46 419 211 -14 11 117 l 613 419 b 367 608 589 544 490 608 b 167 533 290 608 219 583 l 94 608 b 383 736 157 686 261 736 m 393 117 b 614 306 494 117 592 178 l 182 306 b 393 117 190 181 290 117 "},"f":{"ha":517,"x_min":0,"x_max":0,"o":"m 378 885 b 269 767 308 885 269 847 l 269 722 l 461 722 l 461 599 l 269 599 l 269 0 l 115 0 l 115 599 l 28 599 l 28 722 l 115 722 l 115 785 b 340 1015 115 979 249 1015 b 461 988 379 1015 426 1008 l 461 867 b 378 885 429 882 396 885 "},"g":{"ha":875,"x_min":0,"x_max":0,"o":"m 799 722 l 799 49 b 426 -289 799 -218 592 -289 b 215 -242 336 -289 254 -268 l 215 -115 b 400 -160 249 -137 319 -160 b 646 40 540 -160 646 -96 l 646 115 l 638 115 b 392 -14 613 58 522 -14 b 42 361 222 -14 42 113 b 392 736 42 610 222 736 b 638 607 522 736 613 664 l 646 607 l 646 722 m 421 125 b 650 361 538 125 650 206 b 421 597 650 517 538 597 b 193 361 306 597 193 517 b 421 125 193 206 306 125 "},"ğ":{"ha":875,"x_min":0,"x_max":0,"o":"m 421 817 b 211 1028 271 817 210 925 l 324 1028 b 421 924 324 974 351 924 b 518 1028 490 924 518 974 l 631 1028 b 421 817 632 925 572 817 m 799 722 l 799 49 b 426 -289 799 -218 592 -289 b 215 -242 336 -289 254 -268 l 215 -115 b 400 -160 249 -137 319 -160 b 646 40 540 -160 646 -96 l 646 115 l 638 115 b 392 -14 613 58 522 -14 b 42 361 222 -14 42 113 b 392 736 42 610 222 736 b 638 607 522 736 613 664 l 646 607 l 646 722 m 421 125 b 650 361 538 125 650 206 b 421 597 650 517 538 597 b 193 361 306 597 193 517 b 421 125 193 206 306 125 "},"ģ":{"ha":875,"x_min":0,"x_max":0,"o":"m 799 722 l 799 49 b 426 -289 799 -218 592 -289 b 215 -242 336 -289 254 -268 l 215 -115 b 400 -160 249 -137 319 -160 b 646 40 540 -160 646 -96 l 646 115 l 638 115 b 392 -14 613 58 522 -14 b 42 361 222 -14 42 113 b 325 729 42 578 178 701 l 438 1053 l 574 1053 l 458 729 b 638 607 553 711 617 654 l 646 607 l 646 722 m 421 125 b 650 361 538 125 650 206 b 421 597 650 517 538 597 b 193 361 306 597 193 517 b 421 125 193 206 306 125 "},"ġ":{"ha":875,"x_min":0,"x_max":0,"o":"m 500 849 l 346 849 l 346 1001 l 500 1001 m 799 722 l 799 49 b 426 -289 799 -218 592 -289 b 215 -242 336 -289 254 -268 l 215 -115 b 400 -160 249 -137 319 -160 b 646 40 540 -160 646 -96 l 646 115 l 638 115 b 392 -14 613 58 522 -14 b 42 361 222 -14 42 113 b 392 736 42 610 222 736 b 638 607 522 736 613 664 l 646 607 l 646 722 m 421 125 b 650 361 538 125 650 206 b 421 597 650 517 538 597 b 193 361 306 597 193 517 b 421 125 193 206 306 125 "},"h":{"ha":814,"x_min":0,"x_max":0,"o":"m 461 736 b 738 425 610 736 738 643 l 738 0 l 583 0 l 583 400 b 407 597 583 526 514 597 b 229 400 303 597 229 526 l 229 0 l 76 0 l 76 986 l 229 986 l 229 614 b 461 736 268 681 344 736 "},"ħ":{"ha":829,"x_min":0,"x_max":0,"o":"m 476 736 b 753 425 625 736 753 643 l 753 0 l 599 0 l 599 400 b 422 597 599 526 529 597 b 244 400 318 597 244 526 l 244 0 l 92 0 l 92 782 l 0 782 l 0 868 l 92 868 l 92 986 l 244 986 l 244 868 l 421 868 l 421 782 l 244 782 l 244 614 b 476 736 283 681 360 736 "},"i":{"ha":306,"x_min":0,"x_max":0,"o":"m 76 986 l 229 986 l 229 849 l 76 849 m 76 722 l 229 722 l 229 0 l 76 0 "},"ı":{"ha":306,"x_min":0,"x_max":0,"o":"m 76 722 l 229 722 l 229 0 l 76 0 "},"í":{"ha":306,"x_min":0,"x_max":0,"o":"m 183 1028 l 322 1028 l 225 811 l 96 811 m 76 722 l 229 722 l 229 0 l 76 0 "},"ǐ":{"ha":306,"x_min":0,"x_max":0,"o":"m 143 886 l 268 1028 l 344 960 l 194 788 l 92 788 l -58 960 l 18 1028 m 76 722 l 229 722 l 229 0 l 76 0 "},"î":{"ha":306,"x_min":0,"x_max":0,"o":"m -49 856 l 101 1028 l 204 1028 l 354 856 l 278 788 l 153 929 l 28 788 m 76 722 l 229 722 l 229 0 l 76 0 "},"ï":{"ha":306,"x_min":0,"x_max":0,"o":"m -79 1001 l 65 1001 l 65 849 l -79 849 m 242 1001 l 386 1001 l 386 849 l 242 849 m 76 722 l 229 722 l 229 0 l 76 0 "},"ì":{"ha":306,"x_min":0,"x_max":0,"o":"m 85 811 l -11 1028 l 126 1028 l 215 811 m 76 722 l 229 722 l 229 0 l 76 0 "},"ĳ":{"ha":614,"x_min":0,"x_max":0,"o":"m 76 986 l 229 986 l 229 849 l 76 849 m 385 986 l 539 986 l 539 849 l 385 849 m 76 722 l 229 722 l 229 0 l 76 0 m 181 -125 l 217 -125 b 385 47 321 -125 385 -96 l 385 722 l 539 722 l 539 32 b 224 -268 539 -189 431 -268 l 181 -268 "},"ī":{"ha":306,"x_min":0,"x_max":0,"o":"m -104 972 l 411 972 l 411 854 l -104 854 m 76 722 l 229 722 l 229 0 l 76 0 "},"į":{"ha":306,"x_min":0,"x_max":0,"o":"m 232 1001 l 232 849 l 78 849 l 78 1001 m 231 0 b 44 -142 85 -42 44 -93 b 156 -206 44 -200 107 -225 l 156 -275 b -93 -162 81 -318 -93 -300 b 76 6 -93 -86 -29 -28 l 76 722 l 229 722 l 229 0 l 231 0 "},"j":{"ha":308,"x_min":0,"x_max":0,"o":"m 79 986 l 233 986 l 233 849 l 79 849 m -125 -125 l -89 -125 b 79 47 15 -125 79 -96 l 79 722 l 233 722 l 233 32 b -82 -268 233 -189 125 -268 l -125 -268 "},"ȷ":{"ha":308,"x_min":0,"x_max":0,"o":"m -125 -125 l -89 -125 b 79 47 15 -125 79 -96 l 79 722 l 233 722 l 233 32 b -82 -268 233 -189 125 -268 l -125 -268 "},"k":{"ha":781,"x_min":0,"x_max":0,"o":"m 331 293 l 229 183 l 229 0 l 76 0 l 76 986 l 229 986 l 229 381 l 536 722 l 722 722 l 426 399 l 754 0 l 579 0 "},"ķ":{"ha":781,"x_min":0,"x_max":0,"o":"m 754 0 l 579 0 l 331 293 l 229 183 l 229 0 l 76 0 l 76 986 l 229 986 l 229 381 l 536 722 l 722 722 l 426 399 m 335 -56 l 469 -56 l 349 -394 l 215 -394 "},"l":{"ha":306,"x_min":0,"x_max":0,"o":"m 76 986 l 229 986 l 229 0 l 76 0 "},"ĺ":{"ha":306,"x_min":0,"x_max":0,"o":"m 183 1292 l 322 1292 l 225 1075 l 96 1075 m 76 986 l 229 986 l 229 0 l 76 0 "},"ľ":{"ha":465,"x_min":0,"x_max":0,"o":"m 386 1000 l 521 1000 l 400 661 l 267 661 m 76 986 l 229 986 l 229 0 l 76 0 "},"ļ":{"ha":306,"x_min":0,"x_max":0,"o":"m 76 986 l 229 986 l 229 0 l 76 0 m 86 -56 l 221 -56 l 100 -394 l -33 -394 "},"ŀ":{"ha":465,"x_min":0,"x_max":0,"o":"m 76 986 l 229 986 l 229 0 l 76 0 m 425 407 b 335 496 375 407 335 443 b 425 586 335 549 375 586 b 514 496 475 586 514 549 b 425 407 514 443 475 407 "},"ł":{"ha":338,"x_min":0,"x_max":0,"o":"m 351 622 l 247 514 l 247 0 l 93 0 l 93 353 l -14 240 l -14 376 l 93 489 l 93 986 l 247 986 l 247 650 l 350 757 l 351 757 "},"m":{"ha":1242,"x_min":0,"x_max":0,"o":"m 904 736 b 1167 422 1056 736 1167 640 l 1167 0 l 1013 0 l 1013 414 b 860 597 1013 531 956 597 b 699 414 761 597 699 531 l 699 0 l 544 0 l 544 414 b 392 597 544 531 488 597 b 229 414 293 597 229 531 l 229 0 l 76 0 l 76 722 l 229 722 l 229 619 b 443 736 267 683 335 736 b 663 604 538 736 618 694 b 904 736 701 675 781 736 "},"n":{"ha":814,"x_min":0,"x_max":0,"o":"m 461 736 b 738 425 610 736 738 643 l 738 0 l 583 0 l 583 400 b 407 597 583 526 514 597 b 229 400 303 597 229 526 l 229 0 l 76 0 l 76 722 l 229 722 l 229 614 b 461 736 268 681 344 736 "},"ń":{"ha":814,"x_min":0,"x_max":0,"o":"m 494 811 l 365 811 l 453 1028 l 592 1028 m 461 736 b 738 425 610 736 738 643 l 738 0 l 583 0 l 583 400 b 407 597 583 526 514 597 b 229 400 303 597 229 526 l 229 0 l 76 0 l 76 722 l 229 722 l 229 614 b 461 736 268 681 344 736 "},"ň":{"ha":814,"x_min":0,"x_max":0,"o":"m 363 788 l 213 960 l 289 1028 l 414 886 l 539 1028 l 615 960 l 465 788 m 461 736 b 738 425 610 736 738 643 l 738 0 l 583 0 l 583 400 b 407 597 583 526 514 597 b 229 400 303 597 229 526 l 229 0 l 76 0 l 76 722 l 229 722 l 229 614 b 461 736 268 681 344 736 "},"ņ":{"ha":814,"x_min":0,"x_max":0,"o":"m 461 736 b 738 425 610 736 738 643 l 738 0 l 583 0 l 583 400 b 407 597 583 526 514 597 b 229 400 303 597 229 526 l 229 0 l 76 0 l 76 722 l 229 722 l 229 614 b 461 736 268 681 344 736 m 357 -56 l 492 -56 l 371 -394 l 238 -394 "},"ŋ":{"ha":814,"x_min":0,"x_max":0,"o":"m 461 736 b 738 425 610 736 738 643 l 738 0 b 422 -268 738 -189 629 -268 l 381 -268 l 381 -125 l 417 -125 b 583 47 521 -125 583 -96 l 583 400 b 407 597 583 526 514 597 b 229 400 303 597 229 526 l 229 0 l 76 0 l 76 722 l 229 722 l 229 614 b 461 736 268 681 344 736 "},"ñ":{"ha":814,"x_min":0,"x_max":0,"o":"m 343 907 b 288 858 313 907 288 890 l 171 858 b 317 1019 171 956 225 1019 b 503 939 428 1019 435 939 b 558 988 533 939 558 956 l 675 988 b 529 826 675 890 621 826 b 343 907 418 826 411 907 m 461 736 b 738 425 610 736 738 643 l 738 0 l 583 0 l 583 400 b 407 597 583 526 514 597 b 229 400 303 597 229 526 l 229 0 l 76 0 l 76 722 l 229 722 l 229 614 b 461 736 268 681 344 736 "},"o":{"ha":839,"x_min":0,"x_max":0,"o":"m 419 -14 b 42 361 232 -14 42 118 b 419 736 42 604 232 736 b 797 361 607 736 797 604 b 419 -14 797 118 607 -14 m 419 126 b 644 361 538 126 644 213 b 419 596 644 510 538 596 b 193 361 301 596 193 510 b 419 126 193 213 301 126 "},"ó":{"ha":839,"x_min":0,"x_max":0,"o":"m 450 1028 l 589 1028 l 492 811 l 363 811 m 419 -14 b 42 361 232 -14 42 118 b 419 736 42 604 232 736 b 797 361 607 736 797 604 b 419 -14 797 118 607 -14 m 419 126 b 644 361 538 126 644 213 b 419 596 644 510 538 596 b 193 361 301 596 193 510 b 419 126 193 213 301 126 "},"ǒ":{"ha":839,"x_min":0,"x_max":0,"o":"m 410 886 l 535 1028 l 611 960 l 461 788 l 358 788 l 208 960 l 285 1028 m 419 -14 b 42 361 232 -14 42 118 b 419 736 42 604 232 736 b 797 361 607 736 797 604 b 419 -14 797 118 607 -14 m 419 126 b 644 361 538 126 644 213 b 419 596 644 510 538 596 b 193 361 301 596 193 510 b 419 126 193 213 301 126 "},"ô":{"ha":839,"x_min":0,"x_max":0,"o":"m 218 856 l 368 1028 l 471 1028 l 621 856 l 544 788 l 419 929 l 294 788 m 419 -14 b 42 361 232 -14 42 118 b 419 736 42 604 232 736 b 797 361 607 736 797 604 b 419 -14 797 118 607 -14 m 419 126 b 644 361 538 126 644 213 b 419 596 644 510 538 596 b 193 361 301 596 193 510 b 419 126 193 213 301 126 "},"ö":{"ha":839,"x_min":0,"x_max":0,"o":"m 188 1001 l 332 1001 l 332 849 l 188 849 m 508 1001 l 653 1001 l 653 849 l 508 849 m 419 -14 b 42 361 232 -14 42 118 b 419 736 42 604 232 736 b 797 361 607 736 797 604 b 419 -14 797 118 607 -14 m 419 126 b 644 361 538 126 644 213 b 419 596 644 510 538 596 b 193 361 301 596 193 510 b 419 126 193 213 301 126 "},"ò":{"ha":839,"x_min":0,"x_max":0,"o":"m 350 811 l 254 1028 l 392 1028 l 481 811 m 419 -14 b 42 361 232 -14 42 118 b 419 736 42 604 232 736 b 797 361 607 736 797 604 b 419 -14 797 118 607 -14 m 419 126 b 644 361 538 126 644 213 b 419 596 644 510 538 596 b 193 361 301 596 193 510 b 419 126 193 213 301 126 "},"ő":{"ha":839,"x_min":0,"x_max":0,"o":"m 328 1028 l 467 1028 l 369 811 l 240 811 m 568 1028 l 706 1028 l 610 811 l 481 811 m 419 -14 b 42 361 232 -14 42 118 b 419 736 42 604 232 736 b 797 361 607 736 797 604 b 419 -14 797 118 607 -14 m 419 126 b 644 361 538 126 644 213 b 419 596 644 510 538 596 b 193 361 301 596 193 510 b 419 126 193 213 301 126 "},"ō":{"ha":839,"x_min":0,"x_max":0,"o":"m 163 972 l 678 972 l 678 854 l 163 854 m 419 -14 b 42 361 232 -14 42 118 b 419 736 42 604 232 736 b 797 361 607 736 797 604 b 419 -14 797 118 607 -14 m 419 126 b 644 361 538 126 644 213 b 419 596 644 510 538 596 b 193 361 301 596 193 510 b 419 126 193 213 301 126 "},"ø":{"ha":839,"x_min":0,"x_max":0,"o":"m 639 671 b 797 361 731 610 797 504 b 419 -14 797 118 607 -14 b 317 0 385 -14 350 -10 l 283 -69 l 138 -69 l 197 54 b 42 361 106 117 42 219 b 419 736 42 604 232 736 b 518 724 453 736 486 732 l 556 803 l 701 803 l 639 671 m 193 361 b 261 189 193 288 219 229 l 456 593 b 419 596 443 594 432 596 b 193 361 301 596 193 510 m 419 126 b 644 361 538 126 644 213 b 574 536 644 438 617 496 l 379 129 b 419 126 392 128 406 126 "},"õ":{"ha":839,"x_min":0,"x_max":0,"o":"m 525 826 b 339 907 414 826 407 907 b 283 858 308 907 283 890 l 167 858 b 313 1019 167 956 221 1019 b 499 939 424 1019 431 939 b 554 988 529 939 554 956 l 671 988 b 525 826 671 890 617 826 m 419 -14 b 42 361 232 -14 42 118 b 419 736 42 604 232 736 b 797 361 607 736 797 604 b 419 -14 797 118 607 -14 m 419 126 b 644 361 538 126 644 213 b 419 596 644 510 538 596 b 193 361 301 596 193 510 b 419 126 193 213 301 126 "},"œ":{"ha":1397,"x_min":0,"x_max":0,"o":"m 793 303 b 790 283 793 296 792 290 b 1032 114 819 171 915 114 b 1232 189 1108 114 1179 139 l 1304 114 b 1015 -14 1242 36 1138 -14 b 717 124 899 -14 788 33 b 419 -14 644 33 532 -14 b 42 361 232 -14 42 118 b 419 736 42 604 232 736 b 717 600 531 736 644 689 b 1004 736 786 689 894 736 b 1353 303 1188 736 1388 606 m 1006 606 b 790 440 910 606 819 551 b 793 417 792 433 793 425 l 1217 417 b 1006 606 1207 542 1107 606 m 419 126 b 642 322 526 126 625 197 b 640 361 640 335 640 347 b 642 400 640 375 640 388 b 419 596 625 525 526 596 b 193 361 301 596 193 510 b 419 126 193 213 301 126 "},"p":{"ha":875,"x_min":0,"x_max":0,"o":"m 483 736 b 833 361 654 736 833 610 b 483 -14 833 113 654 -14 b 233 115 351 -14 260 58 l 229 115 l 229 -264 l 76 -264 l 76 722 l 229 722 l 229 607 l 233 607 b 483 736 260 664 351 736 m 454 125 b 682 361 569 125 682 206 b 454 597 682 517 569 597 b 225 361 338 597 225 517 b 454 125 225 206 338 125 "},"þ":{"ha":875,"x_min":0,"x_max":0,"o":"m 483 736 b 833 361 654 736 833 610 b 483 -14 833 113 654 -14 b 233 115 351 -14 260 58 l 229 115 l 229 -264 l 76 -264 l 76 986 l 229 986 l 229 607 l 233 607 b 483 736 260 664 351 736 m 454 125 b 682 361 569 125 682 206 b 454 597 682 517 569 597 b 225 361 338 597 225 517 b 454 125 225 206 338 125 "},"q":{"ha":875,"x_min":0,"x_max":0,"o":"m 799 722 l 799 -264 l 644 -264 l 644 115 l 642 115 b 392 -14 615 58 524 -14 b 42 361 221 -14 42 113 b 392 736 42 610 221 736 b 642 607 524 736 615 664 l 646 607 l 646 722 m 421 125 b 650 361 538 125 650 206 b 421 597 650 517 538 597 b 193 361 306 597 193 517 b 421 125 193 206 306 125 "},"r":{"ha":544,"x_min":0,"x_max":0,"o":"m 458 736 b 504 731 475 736 489 735 l 504 585 b 460 589 489 588 476 589 b 229 338 322 589 229 489 l 229 0 l 76 0 l 76 722 l 229 722 l 229 536 b 458 736 254 644 326 736 "},"ŕ":{"ha":544,"x_min":0,"x_max":0,"o":"m 360 811 l 231 811 l 318 1028 l 457 1028 m 458 736 b 504 731 475 736 489 735 l 504 585 b 460 589 489 588 476 589 b 229 338 322 589 229 489 l 229 0 l 76 0 l 76 722 l 229 722 l 229 536 b 458 736 254 644 326 736 "},"ř":{"ha":544,"x_min":0,"x_max":0,"o":"m 228 788 l 78 960 l 154 1028 l 279 886 l 404 1028 l 481 960 l 331 788 m 458 736 b 504 731 475 736 489 735 l 504 585 b 460 589 489 588 476 589 b 229 338 322 589 229 489 l 229 0 l 76 0 l 76 722 l 229 722 l 229 536 b 458 736 254 644 326 736 "},"ŗ":{"ha":544,"x_min":0,"x_max":0,"o":"m 458 736 b 504 731 475 736 489 735 l 504 585 b 460 589 489 588 476 589 b 229 338 322 589 229 489 l 229 0 l 76 0 l 76 722 l 229 722 l 229 536 b 458 736 254 644 326 736 m 83 -56 l 218 -56 l 97 -394 l -36 -394 "},"s":{"ha":603,"x_min":0,"x_max":0,"o":"m 297 -14 b 35 185 158 -14 57 57 l 160 219 b 296 110 175 158 221 110 b 408 203 353 110 408 139 b 308 304 408 249 378 276 l 231 333 b 61 538 111 379 61 453 b 299 736 61 660 168 736 b 538 563 422 736 513 668 l 417 531 b 306 614 396 589 356 614 b 211 536 250 614 211 583 b 300 443 211 499 235 467 l 371 415 b 561 203 471 378 561 326 b 297 -14 561 58 439 -14 "},"ś":{"ha":603,"x_min":0,"x_max":0,"o":"m 314 1028 l 453 1028 l 356 811 l 226 811 m 297 -14 b 35 185 158 -14 57 57 l 160 219 b 296 110 175 158 221 110 b 408 203 353 110 408 139 b 308 304 408 249 378 276 l 231 333 b 61 538 111 379 61 453 b 299 736 61 660 168 736 b 538 563 422 736 513 668 l 417 531 b 306 614 396 589 356 614 b 211 536 250 614 211 583 b 300 443 211 499 235 467 l 371 415 b 561 203 471 378 561 326 b 297 -14 561 58 439 -14 "},"š":{"ha":603,"x_min":0,"x_max":0,"o":"m 274 886 l 399 1028 l 475 960 l 325 788 l 222 788 l 72 960 l 149 1028 m 297 -14 b 35 185 158 -14 57 57 l 160 219 b 296 110 175 158 221 110 b 408 203 353 110 408 139 b 308 304 408 249 378 276 l 231 333 b 61 538 111 379 61 453 b 299 736 61 660 168 736 b 538 563 422 736 513 668 l 417 531 b 306 614 396 589 356 614 b 211 536 250 614 211 583 b 300 443 211 499 235 467 l 371 415 b 561 203 471 378 561 326 b 297 -14 561 58 439 -14 "},"ş":{"ha":619,"x_min":0,"x_max":0,"o":"m 561 203 b 358 -10 561 79 472 8 l 328 -53 b 453 -171 403 -54 453 -104 b 210 -299 453 -275 328 -325 l 210 -244 b 339 -182 285 -247 339 -233 b 219 -121 339 -143 307 -110 l 200 -83 l 244 -10 b 35 185 133 6 54 74 l 160 219 b 296 110 175 158 221 110 b 408 203 353 110 408 139 b 308 304 408 249 378 276 l 231 333 b 61 538 111 379 61 453 b 299 736 61 660 168 736 b 538 563 422 736 513 668 l 417 531 b 306 614 396 589 356 614 b 211 536 250 614 211 583 b 300 443 211 499 235 467 l 371 415 b 561 203 471 378 561 326 "},"ș":{"ha":603,"x_min":0,"x_max":0,"o":"m 297 -14 b 35 185 158 -14 57 57 l 160 219 b 296 110 175 158 221 110 b 408 203 353 110 408 139 b 308 304 408 249 378 276 l 231 333 b 61 538 111 379 61 453 b 299 736 61 660 168 736 b 538 563 422 736 513 668 l 417 531 b 306 614 396 589 356 614 b 211 536 250 614 211 583 b 300 443 211 499 235 467 l 371 415 b 561 203 471 378 561 326 b 297 -14 561 58 439 -14 m 231 -56 l 365 -56 l 244 -394 l 111 -394 "},"ß":{"ha":857,"x_min":0,"x_max":0,"o":"m 76 672 b 415 972 76 881 211 972 b 750 729 606 972 750 890 b 601 533 750 614 681 550 b 808 283 735 510 808 421 b 461 0 808 96 692 0 l 340 0 l 340 136 l 444 136 b 651 292 568 136 651 171 b 428 460 651 422 554 460 l 340 460 l 340 586 l 418 586 b 593 708 543 586 593 628 b 418 838 593 803 521 838 b 229 669 297 838 229 792 l 229 0 l 76 0 "},"t":{"ha":490,"x_min":0,"x_max":0,"o":"m 296 599 l 296 203 b 375 129 296 161 318 129 b 442 142 392 129 415 132 l 442 21 b 329 -8 415 -1 368 -8 b 142 175 219 -8 142 46 l 142 599 l 42 599 l 42 722 l 142 722 l 142 907 l 296 907 l 296 722 l 442 722 l 442 599 "},"ŧ":{"ha":490,"x_min":0,"x_max":0,"o":"m 296 599 l 296 532 l 442 532 l 442 407 l 296 407 l 296 203 b 375 129 296 161 318 129 b 442 142 392 129 415 132 l 442 21 b 329 -8 415 -1 368 -8 b 142 175 219 -8 142 46 l 142 407 l 42 407 l 42 532 l 142 532 l 142 599 l 42 599 l 42 722 l 142 722 l 142 907 l 296 907 l 296 722 l 442 722 l 442 599 "},"ť":{"ha":490,"x_min":0,"x_max":0,"o":"m 586 997 l 489 781 l 360 781 l 447 997 m 296 722 l 442 722 l 442 599 l 296 599 l 296 203 b 375 129 296 161 318 129 b 442 142 392 129 415 132 l 442 21 b 329 -8 415 -1 368 -8 b 142 175 219 -8 142 46 l 142 599 l 42 599 l 42 722 l 142 722 l 142 907 l 296 907 "},"ţ":{"ha":490,"x_min":0,"x_max":0,"o":"m 322 -47 b 447 -165 397 -49 447 -99 b 204 -293 447 -269 322 -319 l 204 -239 b 333 -176 279 -242 333 -228 b 214 -115 333 -137 301 -104 l 194 -78 l 246 6 b 142 175 182 28 142 82 l 142 599 l 42 599 l 42 722 l 142 722 l 142 907 l 296 907 l 296 722 l 442 722 l 442 599 l 296 599 l 296 203 b 375 129 296 161 318 129 b 442 142 392 129 415 132 l 442 21 b 350 -8 419 3 383 -6 l 322 -47 "},"ț":{"ha":490,"x_min":0,"x_max":0,"o":"m 296 599 l 296 203 b 375 129 296 161 318 129 b 442 142 392 129 415 132 l 442 21 b 329 -8 415 -1 368 -8 b 142 175 219 -8 142 46 l 142 599 l 42 599 l 42 722 l 142 722 l 142 907 l 296 907 l 296 722 l 442 722 l 442 599 m 236 -47 l 371 -47 l 250 -386 l 117 -386 "},"u":{"ha":814,"x_min":0,"x_max":0,"o":"m 738 722 l 738 0 l 583 0 l 583 107 b 353 -14 543 40 468 -14 b 76 297 203 -14 76 79 l 76 722 l 229 722 l 229 322 b 406 125 229 196 300 125 b 583 322 511 125 583 196 l 583 722 "},"ú":{"ha":814,"x_min":0,"x_max":0,"o":"m 483 811 l 354 811 l 442 1028 l 581 1028 m 738 722 l 738 0 l 583 0 l 583 107 b 353 -14 543 40 468 -14 b 76 297 203 -14 76 79 l 76 722 l 229 722 l 229 322 b 406 125 229 196 300 125 b 583 322 511 125 583 196 l 583 722 "},"ŭ":{"ha":814,"x_min":0,"x_max":0,"o":"m 411 817 b 201 1028 260 817 200 925 l 314 1028 b 411 924 314 974 340 924 b 508 1028 481 924 508 974 l 621 1028 b 411 817 622 925 561 817 m 738 722 l 738 0 l 583 0 l 583 107 b 353 -14 543 40 468 -14 b 76 297 203 -14 76 79 l 76 722 l 229 722 l 229 322 b 406 125 229 196 300 125 b 583 322 511 125 583 196 l 583 722 "},"ǔ":{"ha":814,"x_min":0,"x_max":0,"o":"m 351 788 l 201 960 l 278 1028 l 403 886 l 528 1028 l 604 960 l 454 788 m 738 722 l 738 0 l 583 0 l 583 107 b 353 -14 543 40 468 -14 b 76 297 203 -14 76 79 l 76 722 l 229 722 l 229 322 b 406 125 229 196 300 125 b 583 322 511 125 583 196 l 583 722 "},"û":{"ha":814,"x_min":0,"x_max":0,"o":"m 286 788 l 210 856 l 360 1028 l 463 1028 l 613 856 l 536 788 l 411 929 m 738 722 l 738 0 l 583 0 l 583 107 b 353 -14 543 40 468 -14 b 76 297 203 -14 76 79 l 76 722 l 229 722 l 229 322 b 406 125 229 196 300 125 b 583 322 511 125 583 196 l 583 722 "},"ü":{"ha":814,"x_min":0,"x_max":0,"o":"m 324 849 l 179 849 l 179 1001 l 324 1001 m 644 849 l 500 849 l 500 1001 l 644 1001 m 738 722 l 738 0 l 583 0 l 583 107 b 353 -14 543 40 468 -14 b 76 297 203 -14 76 79 l 76 722 l 229 722 l 229 322 b 406 125 229 196 300 125 b 583 322 511 125 583 196 l 583 722 "},"ù":{"ha":814,"x_min":0,"x_max":0,"o":"m 343 811 l 247 1028 l 385 1028 l 474 811 m 738 722 l 738 0 l 583 0 l 583 107 b 353 -14 543 40 468 -14 b 76 297 203 -14 76 79 l 76 722 l 229 722 l 229 322 b 406 125 229 196 300 125 b 583 322 511 125 583 196 l 583 722 "},"ű":{"ha":814,"x_min":0,"x_max":0,"o":"m 361 811 l 232 811 l 319 1028 l 458 1028 m 601 811 l 472 811 l 560 1028 l 697 1028 m 738 722 l 738 0 l 583 0 l 583 107 b 353 -14 543 40 468 -14 b 76 297 203 -14 76 79 l 76 722 l 229 722 l 229 322 b 406 125 229 196 300 125 b 583 322 511 125 583 196 l 583 722 "},"ū":{"ha":814,"x_min":0,"x_max":0,"o":"m 669 854 l 154 854 l 154 972 l 669 972 m 738 722 l 738 0 l 583 0 l 583 107 b 353 -14 543 40 468 -14 b 76 297 203 -14 76 79 l 76 722 l 229 722 l 229 322 b 406 125 229 196 300 125 b 583 322 511 125 583 196 l 583 722 "},"ų":{"ha":814,"x_min":0,"x_max":0,"o":"m 738 0 b 551 -142 592 -42 551 -93 b 663 -206 551 -200 614 -225 l 663 -275 b 414 -162 588 -318 414 -300 b 583 6 414 -86 478 -28 l 583 107 b 353 -14 543 40 468 -14 b 76 297 203 -14 76 79 l 76 722 l 229 722 l 229 322 b 406 125 229 196 300 125 b 583 322 511 125 583 196 l 583 722 l 738 722 l 738 0 "},"ů":{"ha":814,"x_min":0,"x_max":0,"o":"m 413 815 b 268 957 329 815 268 879 b 413 1100 268 1036 329 1100 b 553 957 490 1100 553 1036 b 413 815 553 879 490 815 m 410 1001 b 368 957 385 1001 368 982 b 410 914 368 933 385 914 b 454 957 435 914 454 933 b 410 1001 454 982 435 1001 m 738 722 l 738 0 l 583 0 l 583 107 b 353 -14 543 40 468 -14 b 76 297 203 -14 76 79 l 76 722 l 229 722 l 229 322 b 406 125 229 196 300 125 b 583 322 511 125 583 196 l 583 722 "},"ũ":{"ha":814,"x_min":0,"x_max":0,"o":"m 332 907 b 276 858 301 907 276 890 l 160 858 b 306 1019 160 956 214 1019 b 492 939 417 1019 424 939 b 547 988 522 939 547 956 l 664 988 b 518 826 664 890 610 826 b 332 907 407 826 400 907 m 738 722 l 738 0 l 583 0 l 583 107 b 353 -14 543 40 468 -14 b 76 297 203 -14 76 79 l 76 722 l 229 722 l 229 322 b 406 125 229 196 300 125 b 583 322 511 125 583 196 l 583 722 "},"v":{"ha":808,"x_min":0,"x_max":0,"o":"m 28 722 l 185 722 l 404 185 l 622 722 l 781 722 l 475 0 l 332 0 "},"w":{"ha":1278,"x_min":0,"x_max":0,"o":"m 1250 722 l 982 0 l 840 0 l 639 535 l 438 0 l 296 0 l 28 722 l 181 722 l 369 186 l 568 722 l 710 722 l 908 186 l 1096 722 "},"ẃ":{"ha":1278,"x_min":0,"x_max":0,"o":"m 711 811 l 582 811 l 669 1028 l 808 1028 m 1250 722 l 982 0 l 840 0 l 639 535 l 438 0 l 296 0 l 28 722 l 181 722 l 369 186 l 568 722 l 710 722 l 908 186 l 1096 722 "},"ŵ":{"ha":1278,"x_min":0,"x_max":0,"o":"m 514 788 l 438 856 l 588 1028 l 690 1028 l 840 856 l 764 788 l 639 929 m 1250 722 l 982 0 l 840 0 l 639 535 l 438 0 l 296 0 l 28 722 l 181 722 l 369 186 l 568 722 l 710 722 l 908 186 l 1096 722 "},"ẅ":{"ha":1278,"x_min":0,"x_max":0,"o":"m 551 849 l 407 849 l 407 1001 l 551 1001 m 872 849 l 728 849 l 728 1001 l 872 1001 m 1250 722 l 982 0 l 840 0 l 639 535 l 438 0 l 296 0 l 28 722 l 181 722 l 369 186 l 568 722 l 710 722 l 908 186 l 1096 722 "},"ẁ":{"ha":1278,"x_min":0,"x_max":0,"o":"m 569 811 l 474 1028 l 611 1028 l 700 811 m 1250 722 l 982 0 l 840 0 l 639 535 l 438 0 l 296 0 l 28 722 l 181 722 l 369 186 l 568 722 l 710 722 l 908 186 l 1096 722 "},"x":{"ha":772,"x_min":0,"x_max":0,"o":"m 297 369 l 42 722 l 217 722 l 386 482 l 556 722 l 731 722 l 475 369 l 753 0 l 574 0 l 386 257 l 199 0 l 19 0 "},"y":{"ha":808,"x_min":0,"x_max":0,"o":"m 781 722 l 475 0 l 361 -264 l 210 -264 l 329 6 l 28 722 l 185 722 l 404 185 l 622 722 "},"ý":{"ha":808,"x_min":0,"x_max":0,"o":"m 494 811 l 365 811 l 453 1028 l 592 1028 m 781 722 l 475 0 l 361 -264 l 210 -264 l 329 6 l 28 722 l 185 722 l 404 185 l 622 722 "},"ŷ":{"ha":808,"x_min":0,"x_max":0,"o":"m 297 788 l 221 856 l 371 1028 l 474 1028 l 624 856 l 547 788 l 422 929 m 781 722 l 475 0 l 361 -264 l 210 -264 l 329 6 l 28 722 l 185 722 l 404 185 l 622 722 "},"ÿ":{"ha":808,"x_min":0,"x_max":0,"o":"m 335 849 l 190 849 l 190 1001 l 335 1001 m 656 849 l 511 849 l 511 1001 l 656 1001 m 781 722 l 475 0 l 361 -264 l 210 -264 l 329 6 l 28 722 l 185 722 l 404 185 l 622 722 "},"ỳ":{"ha":808,"x_min":0,"x_max":0,"o":"m 354 811 l 258 1028 l 396 1028 l 485 811 m 781 722 l 475 0 l 361 -264 l 210 -264 l 329 6 l 28 722 l 185 722 l 404 185 l 622 722 "},"z":{"ha":724,"x_min":0,"x_max":0,"o":"m 447 588 l 68 588 l 68 722 l 696 722 l 276 136 l 672 136 l 672 0 l 28 0 "},"ź":{"ha":724,"x_min":0,"x_max":0,"o":"m 403 1028 l 542 1028 l 444 811 l 315 811 m 447 588 l 68 588 l 68 722 l 696 722 l 276 136 l 672 136 l 672 0 l 28 0 "},"ž":{"ha":724,"x_min":0,"x_max":0,"o":"m 364 886 l 489 1028 l 565 960 l 415 788 l 313 788 l 163 960 l 239 1028 m 447 588 l 68 588 l 68 722 l 696 722 l 276 136 l 672 136 l 672 0 l 28 0 "},"ż":{"ha":724,"x_min":0,"x_max":0,"o":"m 297 1001 l 451 1001 l 451 849 l 297 849 m 447 588 l 68 588 l 68 722 l 696 722 l 276 136 l 672 136 l 672 0 l 28 0 "},"ﬁ":{"ha":782,"x_min":0,"x_max":0,"o":"m 707 0 l 553 0 l 553 599 l 269 599 l 269 0 l 115 0 l 115 599 l 28 599 l 28 722 l 115 722 l 115 776 b 338 1015 115 974 251 1015 b 461 988 379 1015 426 1008 l 461 867 b 378 885 432 882 396 885 b 269 767 310 885 269 849 l 269 722 l 707 722 m 707 986 l 707 849 l 553 849 l 553 986 "},"ª":{"ha":551,"x_min":0,"x_max":0,"o":"m 206 524 b 42 665 108 524 42 575 b 215 806 42 761 119 799 l 338 815 b 240 897 338 869 296 897 b 119 846 194 897 150 878 l 63 908 b 249 989 93 949 154 989 b 450 775 378 989 450 917 l 450 642 b 475 528 450 583 458 565 l 378 528 b 354 586 372 532 361 549 b 206 524 324 547 274 524 m 218 611 b 338 692 286 611 324 660 l 338 735 l 214 724 b 149 667 165 719 149 693 b 218 611 149 636 172 611 "},"º":{"ha":522,"x_min":0,"x_max":0,"o":"m 263 528 b 42 754 160 528 42 610 b 263 979 42 897 160 979 b 482 754 364 979 482 897 b 263 528 482 610 364 528 m 263 632 b 376 754 318 632 376 676 b 263 874 376 831 318 874 b 146 754 204 874 146 831 b 263 632 146 676 204 632 "},"А":{"ha":975,"x_min":0,"x_max":0,"o":"m 708 201 l 267 201 l 190 0 l 21 0 l 406 986 l 568 986 l 954 0 l 785 0 m 654 347 l 488 789 l 321 347 "},"Б":{"ha":807,"x_min":0,"x_max":0,"o":"m 413 657 b 758 329 625 657 758 524 b 413 0 758 133 625 0 l 76 0 l 76 986 l 663 986 l 663 840 l 233 840 l 233 657 l 413 657 m 397 146 b 599 329 518 146 599 203 b 397 511 599 456 518 511 l 233 511 l 233 146 l 397 146 "},"В":{"ha":801,"x_min":0,"x_max":0,"o":"m 557 549 b 754 286 668 521 754 433 b 417 0 754 118 642 0 l 76 0 l 76 986 l 426 986 b 694 751 597 986 694 881 b 557 549 694 653 636 579 m 233 847 l 233 593 l 394 593 b 543 724 493 593 543 647 b 394 847 543 800 493 847 m 407 139 b 599 301 536 139 599 200 b 404 471 599 401 536 471 l 233 471 l 233 139 l 407 139 "},"Г":{"ha":710,"x_min":0,"x_max":0,"o":"m 661 840 l 233 840 l 233 0 l 76 0 l 76 986 l 661 986 "},"Ѓ":{"ha":710,"x_min":0,"x_max":0,"o":"m 463 1075 l 333 1075 l 421 1292 l 560 1292 m 661 840 l 233 840 l 233 0 l 76 0 l 76 986 l 661 986 "},"Ґ":{"ha":710,"x_min":0,"x_max":0,"o":"m 661 1051 l 661 840 l 233 840 l 233 0 l 76 0 l 76 986 l 504 986 l 504 1051 "},"Д":{"ha":1132,"x_min":0,"x_max":0,"o":"m 1090 146 l 1090 -96 l 933 -96 l 933 0 l 199 0 l 199 -96 l 42 -96 l 42 146 l 163 146 b 218 721 218 251 218 447 l 218 986 l 943 986 l 943 146 m 786 146 l 786 840 l 375 840 l 375 721 b 317 146 375 447 375 251 "},"Е":{"ha":688,"x_min":0,"x_max":0,"o":"m 633 146 l 633 0 l 76 0 l 76 986 l 621 986 l 621 840 l 233 840 l 233 567 l 561 567 l 561 425 l 233 425 l 233 146 "},"Ё":{"ha":688,"x_min":0,"x_max":0,"o":"m 282 1113 l 138 1113 l 138 1265 l 282 1265 m 603 1113 l 458 1113 l 458 1265 l 603 1265 m 633 146 l 633 0 l 76 0 l 76 986 l 621 986 l 621 840 l 233 840 l 233 567 l 561 567 l 561 425 l 233 425 l 233 146 "},"Ж":{"ha":1474,"x_min":0,"x_max":0,"o":"m 938 424 l 822 286 l 822 0 l 665 0 l 665 289 l 551 424 l 217 0 l 42 0 l 457 535 l 75 986 l 253 986 l 665 496 l 665 986 l 822 986 l 822 494 l 1235 986 l 1414 986 l 1032 535 l 1447 0 l 1271 0 "},"З":{"ha":821,"x_min":0,"x_max":0,"o":"m 408 -14 b 56 304 199 -14 56 108 l 218 304 b 415 135 218 188 314 135 b 603 294 506 135 603 176 b 368 463 603 400 526 461 l 368 579 b 561 722 526 588 561 663 b 408 851 561 807 490 851 b 249 693 328 851 249 807 l 86 693 b 407 1000 86 892 229 1000 b 724 746 583 1000 724 894 b 550 529 724 632 644 550 b 765 279 643 524 765 440 b 408 -14 765 90 600 -14 "},"И":{"ha":974,"x_min":0,"x_max":0,"o":"m 740 0 l 740 726 l 733 726 l 233 0 l 76 0 l 76 986 l 233 986 l 233 260 l 240 260 l 739 986 l 897 986 l 897 0 "},"Й":{"ha":974,"x_min":0,"x_max":0,"o":"m 525 1067 b 315 1278 374 1067 314 1175 l 428 1278 b 525 1174 428 1224 456 1174 b 622 1278 594 1174 622 1224 l 735 1278 b 525 1067 736 1175 676 1067 m 740 0 l 740 726 l 733 726 l 233 0 l 76 0 l 76 986 l 233 986 l 233 260 l 240 260 l 739 986 l 897 986 l 897 0 "},"К":{"ha":883,"x_min":0,"x_max":0,"o":"m 347 424 l 233 289 l 233 0 l 76 0 l 76 986 l 233 986 l 233 496 l 646 986 l 824 986 l 442 535 l 857 0 l 682 0 "},"Л":{"ha":994,"x_min":0,"x_max":0,"o":"m 142 -8 b 21 17 89 -8 47 1 l 21 146 b 103 128 46 135 76 128 b 169 194 153 128 169 160 l 169 986 l 919 986 l 919 0 l 763 0 l 763 840 l 326 840 l 326 185 b 142 -8 326 25 240 -8 "},"М":{"ha":1200,"x_min":0,"x_max":0,"o":"m 76 986 l 250 986 l 600 201 l 951 986 l 1125 986 l 1125 0 l 968 0 l 968 681 l 961 681 l 658 0 l 542 0 l 240 681 l 233 681 l 233 0 l 76 0 "},"Н":{"ha":911,"x_min":0,"x_max":0,"o":"m 835 986 l 835 0 l 678 0 l 678 417 l 233 417 l 233 0 l 76 0 l 76 986 l 233 986 l 233 563 l 678 563 l 678 986 "},"О":{"ha":1133,"x_min":0,"x_max":0,"o":"m 567 -14 b 63 493 294 -14 63 190 b 567 1000 63 796 294 1000 b 1071 493 838 1000 1071 796 b 567 -14 1071 190 838 -14 m 567 136 b 910 493 750 136 910 276 b 567 850 910 710 750 850 b 224 493 383 850 224 710 b 567 136 224 276 383 136 "},"П":{"ha":917,"x_min":0,"x_max":0,"o":"m 840 0 l 683 0 l 683 840 l 233 840 l 233 0 l 76 0 l 76 986 l 840 986 "},"Р":{"ha":807,"x_min":0,"x_max":0,"o":"m 413 986 b 758 657 625 986 758 853 b 413 329 758 463 625 329 l 233 329 l 233 0 l 76 0 l 76 986 l 413 986 m 397 475 b 599 657 518 475 599 531 b 397 840 599 783 518 840 l 233 840 l 233 475 l 397 475 "},"С":{"ha":1008,"x_min":0,"x_max":0,"o":"m 568 -14 b 63 493 292 -14 63 189 b 568 1000 63 797 292 1000 b 960 796 696 1000 856 957 l 846 715 b 572 850 774 815 668 850 b 224 493 379 850 224 710 b 574 136 224 275 381 136 b 846 271 671 136 774 171 l 960 190 b 568 -14 856 29 696 -14 "},"Т":{"ha":736,"x_min":0,"x_max":0,"o":"m 696 840 l 447 840 l 447 0 l 290 0 l 290 840 l 42 840 l 42 986 l 696 986 "},"У":{"ha":956,"x_min":0,"x_max":0,"o":"m 914 986 l 382 0 l 210 0 l 386 328 l 35 986 l 207 986 l 472 489 l 740 986 "},"Ф":{"ha":1168,"x_min":0,"x_max":0,"o":"m 1121 493 b 661 97 1121 269 958 104 l 661 0 l 504 0 l 504 97 b 49 493 208 107 49 269 b 504 889 49 717 208 879 l 504 986 l 661 986 l 661 889 b 1121 493 958 882 1121 717 m 661 233 b 964 493 894 240 964 354 b 661 754 964 632 894 747 l 661 233 m 206 493 b 504 233 206 356 279 242 l 504 754 b 206 493 279 746 206 631 "},"Х":{"ha":919,"x_min":0,"x_max":0,"o":"m 708 0 l 460 367 l 211 0 l 28 0 l 368 503 l 40 986 l 225 986 l 461 639 l 696 986 l 879 986 l 553 503 l 893 0 "},"Ч":{"ha":857,"x_min":0,"x_max":0,"o":"m 781 986 l 781 0 l 624 0 l 624 383 b 364 257 588 328 503 257 b 49 576 201 257 49 354 l 49 986 l 206 986 l 206 601 b 413 400 206 465 297 400 b 624 601 529 400 624 465 l 624 986 "},"Ц":{"ha":1039,"x_min":0,"x_max":0,"o":"m 1006 146 l 1006 -96 l 849 -96 l 849 0 l 76 0 l 76 986 l 233 986 l 233 146 l 683 146 l 683 986 l 840 986 l 840 146 "},"Ш":{"ha":1406,"x_min":0,"x_max":0,"o":"m 76 986 l 233 986 l 233 146 l 624 146 l 624 986 l 781 986 l 781 146 l 1172 146 l 1172 986 l 1329 986 l 1329 0 l 76 0 "},"Щ":{"ha":1528,"x_min":0,"x_max":0,"o":"m 1494 146 l 1494 -96 l 1338 -96 l 1338 0 l 76 0 l 76 986 l 233 986 l 233 146 l 624 146 l 624 986 l 781 986 l 781 146 l 1172 146 l 1172 986 l 1329 986 l 1329 146 "},"Ь":{"ha":807,"x_min":0,"x_max":0,"o":"m 413 657 b 758 329 625 657 758 524 b 413 0 758 133 625 0 l 76 0 l 76 986 l 233 986 l 233 657 l 413 657 m 397 146 b 599 329 518 146 599 203 b 397 511 599 456 518 511 l 233 511 l 233 146 l 397 146 "},"Ъ":{"ha":872,"x_min":0,"x_max":0,"o":"m 478 657 b 825 329 690 657 825 524 b 478 0 825 133 690 0 l 142 0 l 142 840 l 0 840 l 0 986 l 299 986 l 299 657 l 478 657 m 464 146 b 665 329 585 146 665 203 b 464 511 665 456 585 511 l 299 511 l 299 146 l 464 146 "},"Ы":{"ha":1144,"x_min":0,"x_max":0,"o":"m 413 657 b 758 329 625 657 758 524 b 413 0 758 133 625 0 l 76 0 l 76 986 l 233 986 l 233 657 l 413 657 m 1068 986 l 1068 0 l 911 0 l 911 986 m 397 146 b 599 329 518 146 599 203 b 397 511 599 456 518 511 l 233 511 l 233 146 l 397 146 "},"Є":{"ha":1008,"x_min":0,"x_max":0,"o":"m 574 136 b 846 271 671 136 774 171 l 960 190 b 568 -14 856 29 696 -14 b 63 493 292 -14 63 189 b 568 1000 63 797 292 1000 b 960 796 696 1000 856 957 l 846 715 b 572 850 774 815 668 850 b 228 554 399 850 254 736 l 485 554 l 485 419 l 231 419 b 574 136 261 244 403 136 "},"Э":{"ha":1007,"x_min":0,"x_max":0,"o":"m 453 1000 b 958 493 729 1000 958 797 b 453 -14 958 189 729 -14 b 60 190 325 -14 165 29 l 175 271 b 447 136 247 171 350 136 b 790 419 617 136 760 244 l 535 419 l 535 554 l 793 554 b 449 850 767 736 622 850 b 175 715 353 850 247 815 l 60 796 b 453 1000 165 957 324 1000 "},"І":{"ha":308,"x_min":0,"x_max":0,"o":"m 76 986 l 233 986 l 233 0 l 76 0 "},"Ї":{"ha":308,"x_min":0,"x_max":0,"o":"m -78 1265 l 67 1265 l 67 1113 l -78 1113 m 243 1265 l 388 1265 l 388 1113 l 243 1113 m 76 986 l 233 986 l 233 0 l 76 0 "},"Ю":{"ha":1440,"x_min":0,"x_max":0,"o":"m 868 1000 b 1374 493 1140 1000 1374 796 b 868 -14 1374 190 1140 -14 b 368 419 619 -14 403 158 l 233 419 l 233 0 l 76 0 l 76 986 l 233 986 l 233 554 l 367 554 b 868 1000 396 824 615 1000 m 868 136 b 1213 493 1051 136 1213 276 b 868 850 1213 710 1051 850 b 525 493 686 850 525 710 b 868 136 525 276 686 136 "},"Я":{"ha":843,"x_min":0,"x_max":0,"o":"m 767 986 l 767 0 l 610 0 l 610 338 l 433 338 l 432 338 l 217 0 l 49 0 l 285 363 b 90 657 164 408 90 514 b 433 986 90 853 225 986 m 610 475 l 610 840 l 450 840 b 250 657 329 840 250 783 b 450 475 250 531 329 475 "},"а":{"ha":875,"x_min":0,"x_max":0,"o":"m 392 -14 b 42 361 221 -14 42 113 b 392 736 42 610 221 736 b 642 607 524 736 615 664 l 646 607 l 646 722 l 799 722 l 799 0 l 646 0 l 646 115 l 642 115 b 392 -14 615 58 524 -14 m 421 125 b 650 361 538 125 650 206 b 421 597 650 517 538 597 b 193 361 306 597 193 517 b 421 125 193 206 306 125 "},"б":{"ha":875,"x_min":0,"x_max":0,"o":"m 483 736 b 833 361 654 736 833 610 b 483 -14 833 113 654 -14 b 233 115 351 -14 260 58 l 229 115 l 229 0 l 76 0 l 76 749 b 288 972 76 893 139 972 l 474 972 b 572 1000 538 972 560 978 l 722 1000 b 507 844 707 893 647 844 l 336 844 b 229 728 257 844 229 806 l 229 607 l 233 607 b 483 736 260 664 351 736 m 454 125 b 682 361 569 125 682 206 b 454 597 682 517 569 597 b 225 361 338 597 225 517 b 454 125 225 206 338 125 "},"в":{"ha":794,"x_min":0,"x_max":0,"o":"m 597 400 b 746 215 701 365 746 300 b 432 0 746 75 622 0 l 76 0 l 76 722 l 446 722 b 690 544 586 722 690 661 b 597 400 690 488 665 431 m 229 594 l 229 438 l 431 438 b 533 518 503 438 533 474 b 431 594 533 563 503 594 m 449 128 b 589 229 563 128 589 179 b 449 329 589 278 563 329 l 229 329 l 229 128 l 449 128 "},"г":{"ha":668,"x_min":0,"x_max":0,"o":"m 613 588 l 229 588 l 229 0 l 76 0 l 76 722 l 613 722 "},"ѓ":{"ha":668,"x_min":0,"x_max":0,"o":"m 426 811 l 297 811 l 385 1028 l 524 1028 m 613 588 l 229 588 l 229 0 l 76 0 l 76 722 l 613 722 "},"ґ":{"ha":668,"x_min":0,"x_max":0,"o":"m 613 786 l 613 588 l 229 588 l 229 0 l 76 0 l 76 722 l 458 722 l 458 786 "},"д":{"ha":936,"x_min":0,"x_max":0,"o":"m 894 136 l 894 -82 l 740 -82 l 740 0 l 196 0 l 196 -82 l 42 -82 l 42 136 l 117 136 b 175 583 175 219 175 367 l 175 722 l 803 722 l 803 136 m 649 136 l 649 588 l 329 588 l 329 583 b 268 136 329 367 329 219 "},"е":{"ha":799,"x_min":0,"x_max":0,"o":"m 404 736 b 753 303 588 736 788 606 l 186 303 b 432 114 210 178 308 114 b 632 189 510 114 579 139 l 704 114 b 415 -14 642 36 538 -14 b 42 361 219 -14 42 121 b 404 736 42 604 221 736 m 406 606 b 185 417 304 606 207 544 l 617 417 b 406 606 608 542 508 606 "},"ё":{"ha":799,"x_min":0,"x_max":0,"o":"m 326 849 l 182 849 l 182 1001 l 326 1001 m 647 849 l 503 849 l 503 1001 l 647 1001 m 404 736 b 753 303 588 736 788 606 l 186 303 b 432 114 210 178 308 114 b 632 189 510 114 579 139 l 704 114 b 415 -14 642 36 538 -14 b 42 361 219 -14 42 121 b 404 736 42 604 221 736 m 406 606 b 185 417 304 606 207 544 l 617 417 b 406 606 608 542 508 606 "},"ж":{"ha":1264,"x_min":0,"x_max":0,"o":"m 800 308 l 706 207 l 706 0 l 551 0 l 551 207 l 457 308 l 204 0 l 21 0 l 358 413 l 69 722 l 261 722 l 551 401 l 551 722 l 706 722 l 706 401 l 996 722 l 1188 722 l 899 414 l 1238 0 l 1053 0 "},"з":{"ha":717,"x_min":0,"x_max":0,"o":"m 358 -14 b 56 239 181 -14 56 82 l 199 239 b 361 113 199 167 258 113 b 511 221 444 113 511 150 b 326 331 511 292 442 331 l 326 431 b 472 518 439 432 472 472 b 351 607 472 574 424 607 b 229 514 275 607 229 569 l 83 514 b 357 735 83 646 183 735 b 621 543 525 735 621 649 b 485 388 621 456 556 406 b 661 213 557 378 661 331 b 358 -14 661 68 521 -14 "},"и":{"ha":814,"x_min":0,"x_max":0,"o":"m 76 722 l 229 722 l 229 224 l 585 722 l 739 722 l 739 0 l 585 0 l 585 499 l 229 0 l 76 0 "},"й":{"ha":814,"x_min":0,"x_max":0,"o":"m 408 817 b 199 1028 257 817 197 925 l 311 1028 b 408 924 311 974 338 924 b 506 1028 478 924 506 974 l 618 1028 b 408 817 619 925 558 817 m 76 722 l 229 722 l 229 224 l 585 722 l 739 722 l 739 0 l 585 0 l 585 499 l 229 0 l 76 0 "},"к":{"ha":789,"x_min":0,"x_max":0,"o":"m 325 308 l 229 206 l 229 0 l 76 0 l 76 722 l 229 722 l 229 400 l 519 722 l 713 722 l 422 413 l 761 0 l 578 0 "},"л":{"ha":899,"x_min":0,"x_max":0,"o":"m 824 0 l 669 0 l 669 588 l 322 588 l 322 190 b 135 -8 322 31 236 -8 b 21 17 83 -8 51 1 l 21 144 b 100 128 53 131 76 128 b 168 188 154 128 168 150 l 168 722 l 824 722 "},"м":{"ha":988,"x_min":0,"x_max":0,"o":"m 76 722 l 244 722 l 494 203 l 743 722 l 913 722 l 913 0 l 758 0 l 758 447 l 551 0 l 438 0 l 229 447 l 229 0 l 76 0 "},"н":{"ha":799,"x_min":0,"x_max":0,"o":"m 722 722 l 722 0 l 568 0 l 568 283 l 229 283 l 229 0 l 76 0 l 76 722 l 229 722 l 229 418 l 568 418 l 568 722 "},"о":{"ha":839,"x_min":0,"x_max":0,"o":"m 419 -14 b 42 361 232 -14 42 118 b 419 736 42 604 232 736 b 797 361 607 736 797 604 b 419 -14 797 118 607 -14 m 419 126 b 644 361 538 126 644 213 b 419 596 644 510 538 596 b 193 361 301 596 193 510 b 419 126 193 213 301 126 "},"п":{"ha":814,"x_min":0,"x_max":0,"o":"m 738 0 l 583 0 l 583 588 l 229 588 l 229 0 l 76 0 l 76 722 l 738 722 "},"р":{"ha":875,"x_min":0,"x_max":0,"o":"m 483 736 b 833 361 654 736 833 610 b 483 -14 833 113 654 -14 b 233 115 351 -14 260 58 l 229 115 l 229 -264 l 76 -264 l 76 722 l 229 722 l 229 607 l 233 607 b 483 736 260 664 351 736 m 454 125 b 682 361 569 125 682 206 b 454 597 682 517 569 597 b 225 361 338 597 225 517 b 454 125 225 206 338 125 "},"с":{"ha":769,"x_min":0,"x_max":0,"o":"m 419 -14 b 42 361 231 -14 42 118 b 419 736 42 604 231 736 b 729 558 546 736 663 676 l 615 488 b 421 596 574 554 503 596 b 193 361 304 596 193 510 b 421 126 193 213 304 126 b 615 235 503 126 574 168 l 729 164 b 419 -14 663 47 546 -14 "},"т":{"ha":638,"x_min":0,"x_max":0,"o":"m 596 588 l 396 588 l 396 0 l 242 0 l 242 588 l 42 588 l 42 722 l 596 722 "},"у":{"ha":808,"x_min":0,"x_max":0,"o":"m 781 722 l 475 0 l 361 -264 l 210 -264 l 329 6 l 28 722 l 185 722 l 404 185 l 622 722 "},"ф":{"ha":1442,"x_min":0,"x_max":0,"o":"m 644 115 l 638 115 b 389 -14 611 58 519 -14 b 42 361 219 -14 42 113 b 389 736 42 610 219 736 b 638 607 519 736 611 664 l 644 607 l 644 1007 l 799 1007 l 799 607 l 806 607 b 1053 736 831 664 922 736 b 1401 361 1224 736 1401 610 b 1053 -14 1401 113 1224 -14 b 806 115 922 -14 831 58 l 799 115 l 799 -264 l 644 -264 m 418 125 b 644 361 535 125 644 206 b 418 597 644 517 535 597 b 193 361 304 597 193 517 b 418 125 193 206 304 125 m 1024 125 b 1249 361 1138 125 1249 206 b 1024 597 1249 517 1138 597 b 799 361 907 597 799 517 b 1024 125 799 206 907 125 "},"х":{"ha":772,"x_min":0,"x_max":0,"o":"m 297 369 l 42 722 l 217 722 l 386 482 l 556 722 l 731 722 l 475 369 l 753 0 l 574 0 l 386 257 l 199 0 l 19 0 "},"ч":{"ha":810,"x_min":0,"x_max":0,"o":"m 733 722 l 733 0 l 579 0 l 579 253 b 354 161 539 204 467 161 b 76 444 210 161 76 233 l 76 722 l 229 722 l 229 454 b 396 297 229 353 300 297 b 579 454 492 297 579 353 l 579 722 "},"ц":{"ha":858,"x_min":0,"x_max":0,"o":"m 824 136 l 824 -96 l 669 -96 l 669 0 l 76 0 l 76 722 l 229 722 l 229 136 l 583 136 l 583 722 l 738 722 l 738 136 "},"ш":{"ha":1117,"x_min":0,"x_max":0,"o":"m 76 722 l 229 722 l 229 136 l 481 136 l 481 722 l 635 722 l 635 136 l 886 136 l 886 722 l 1040 722 l 1040 0 l 76 0 "},"щ":{"ha":1161,"x_min":0,"x_max":0,"o":"m 1126 136 l 1126 -96 l 972 -96 l 972 0 l 76 0 l 76 722 l 229 722 l 229 136 l 481 136 l 481 722 l 635 722 l 635 136 l 886 136 l 886 722 l 1040 722 l 1040 136 "},"ь":{"ha":765,"x_min":0,"x_max":0,"o":"m 482 451 b 725 225 631 451 725 365 b 482 0 725 86 631 0 l 76 0 l 76 722 l 229 722 l 229 451 l 482 451 m 463 136 b 575 225 543 136 575 174 b 463 315 575 278 543 315 l 229 315 l 229 136 l 463 136 "},"ъ":{"ha":788,"x_min":0,"x_max":0,"o":"m 503 451 b 746 225 653 451 746 365 b 503 0 746 86 653 0 l 97 0 l 97 588 l 0 588 l 0 722 l 251 722 l 251 451 l 503 451 m 485 136 b 596 225 565 136 596 174 b 485 315 596 278 565 315 l 251 315 l 251 136 l 485 136 "},"ы":{"ha":1047,"x_min":0,"x_max":0,"o":"m 482 451 b 725 225 631 451 725 365 b 482 0 725 86 631 0 l 76 0 l 76 722 l 229 722 l 229 451 l 482 451 m 972 722 l 972 0 l 818 0 l 818 722 m 463 136 b 575 225 543 136 575 174 b 463 315 575 278 543 315 l 229 315 l 229 136 l 463 136 "},"є":{"ha":769,"x_min":0,"x_max":0,"o":"m 421 126 b 615 235 503 126 574 168 l 729 164 b 419 -14 663 47 546 -14 b 42 361 231 -14 42 118 b 419 736 42 604 231 736 b 729 558 546 736 663 676 l 615 488 b 421 596 574 554 503 596 b 197 411 318 596 219 529 l 406 411 l 406 303 l 199 303 b 421 126 224 190 321 126 "},"э":{"ha":769,"x_min":0,"x_max":0,"o":"m 351 736 b 729 361 540 736 729 604 b 351 -14 729 118 540 -14 b 42 164 225 -14 108 47 l 156 235 b 350 126 196 168 267 126 b 571 303 450 126 546 190 l 364 303 l 364 411 l 572 411 b 350 596 550 529 453 596 b 156 488 267 596 196 554 l 42 558 b 351 736 108 676 225 736 "},"і":{"ha":306,"x_min":0,"x_max":0,"o":"m 76 986 l 229 986 l 229 849 l 76 849 m 76 722 l 229 722 l 229 0 l 76 0 "},"ї":{"ha":306,"x_min":0,"x_max":0,"o":"m -79 1001 l 65 1001 l 65 849 l -79 849 m 242 1001 l 386 1001 l 386 849 l 242 849 m 76 722 l 229 722 l 229 0 l 76 0 "},"ю":{"ha":1147,"x_min":0,"x_max":0,"o":"m 707 736 b 1085 361 894 736 1085 604 b 707 -14 1085 118 894 -14 b 335 286 540 -14 369 92 l 229 286 l 229 0 l 76 0 l 76 722 l 229 722 l 229 428 l 333 428 b 707 736 364 628 538 736 m 707 126 b 932 361 825 126 932 213 b 707 596 932 510 825 596 b 481 361 589 596 481 510 b 707 126 481 213 589 126 "},"я":{"ha":794,"x_min":0,"x_max":0,"o":"m 718 0 l 564 0 l 564 232 l 429 232 l 226 0 l 49 0 l 257 238 b 60 478 133 260 60 349 b 321 722 60 626 160 722 l 718 722 m 564 368 l 564 588 l 331 588 b 208 478 247 588 208 539 b 331 368 208 415 247 368 "},"Δ":{"ha":1018,"x_min":0,"x_max":0,"o":"m 490 972 l 528 972 l 949 0 l 69 0 m 750 136 l 510 717 l 268 136 "},"Ω":{"ha":1088,"x_min":0,"x_max":0,"o":"m 1026 494 b 871 150 1026 353 965 238 l 992 150 l 992 0 l 683 0 l 683 192 l 733 231 b 865 494 811 293 865 386 b 544 828 865 703 710 828 b 224 494 378 828 224 703 b 354 231 224 386 276 293 l 404 192 l 404 0 l 97 0 l 97 150 l 217 150 b 63 494 124 238 63 353 b 544 982 63 781 306 982 b 1026 494 782 982 1026 781 "},"μ":{"ha":814,"x_min":0,"x_max":0,"o":"m 738 722 l 738 0 l 583 0 l 583 107 b 353 -14 543 40 468 -14 b 229 11 308 -14 267 -6 l 229 -264 l 76 -264 l 76 722 l 229 722 l 229 322 b 406 125 229 196 300 125 b 583 322 511 125 583 196 l 583 722 "},"π":{"ha":981,"x_min":0,"x_max":0,"o":"m 824 128 b 918 153 861 128 888 138 l 918 17 b 781 -8 888 1 832 -8 b 608 131 706 -8 608 25 l 608 588 l 365 588 l 365 0 l 208 0 l 208 588 l 69 588 l 69 722 l 903 722 l 903 588 l 765 588 l 765 204 b 824 128 765 139 785 128 "},"¹":{"ha":281,"x_min":0,"x_max":0,"o":"m 125 918 l 101 903 l 76 946 l 125 974 l 176 974 l 176 611 l 125 611 "},"²":{"ha":347,"x_min":0,"x_max":0,"o":"m 53 656 l 147 751 b 229 874 208 815 229 835 b 165 935 229 908 199 935 b 100 865 133 935 100 913 l 100 846 l 49 846 l 49 865 b 165 978 49 932 103 978 b 282 874 229 978 282 928 b 188 724 282 821 250 788 l 122 656 l 286 656 l 286 611 l 53 611 "},"³":{"ha":364,"x_min":0,"x_max":0,"o":"m 182 606 b 56 732 103 606 49 665 l 108 732 b 182 650 99 689 136 650 b 257 717 222 650 257 676 b 154 779 257 769 215 788 l 154 822 b 242 882 217 825 242 849 b 182 933 242 910 215 933 b 118 854 143 933 113 904 l 65 854 b 182 976 58 925 114 976 b 293 882 242 976 293 931 b 251 808 293 854 279 828 b 310 717 283 794 310 764 b 182 606 310 653 250 606 "},"⁄":{"ha":150,"x_min":0,"x_max":0,"o":"m 342 972 l 400 972 l -197 0 l -264 0 "},"½":{"ha":756,"x_min":0,"x_max":0,"o":"m 88 918 l 64 903 l 39 946 l 88 974 l 139 974 l 139 611 l 88 611 m 640 972 l 699 972 l 101 0 l 35 0 m 488 44 l 582 140 b 664 263 643 204 664 224 b 600 324 664 297 633 324 b 535 254 568 324 535 301 l 535 235 l 483 235 l 483 254 b 600 367 483 321 538 367 b 717 263 664 367 717 317 b 622 113 717 210 685 176 l 557 44 l 721 44 l 721 0 l 488 0 "},"¼":{"ha":790,"x_min":0,"x_max":0,"o":"m 88 918 l 64 903 l 39 946 l 88 974 l 139 974 l 139 611 l 88 611 m 640 972 l 699 972 l 101 0 l 35 0 m 667 106 l 483 106 l 667 363 l 718 363 l 718 149 l 756 149 l 756 106 l 718 106 l 718 0 l 667 0 m 667 149 l 667 281 l 576 149 "},"¾":{"ha":815,"x_min":0,"x_max":0,"o":"m 161 606 b 35 732 83 606 29 665 l 88 732 b 161 650 79 689 115 650 b 236 717 201 650 236 676 b 133 779 236 769 194 788 l 133 822 b 221 882 196 825 221 849 b 161 933 221 910 194 933 b 97 854 122 933 93 904 l 44 854 b 161 976 39 925 93 976 b 272 882 221 976 272 931 b 231 808 272 854 258 828 b 289 717 263 794 289 764 b 161 606 289 653 229 606 m 679 972 l 738 972 l 140 0 l 74 0 m 692 106 l 508 106 l 692 363 l 743 363 l 743 149 l 781 149 l 781 106 l 743 106 l 743 0 l 692 0 m 692 149 l 692 281 l 601 149 "},"⅛":{"ha":772,"x_min":0,"x_max":0,"o":"m 88 918 l 64 903 l 39 946 l 88 974 l 139 974 l 139 611 l 88 611 m 640 972 l 699 972 l 101 0 l 35 0 m 610 -3 b 483 107 543 -3 483 43 b 543 199 483 147 506 181 b 501 272 515 217 501 244 b 610 365 501 318 542 365 b 719 272 681 365 719 318 b 678 199 719 244 707 217 b 738 107 717 179 738 147 b 610 -3 738 43 679 -3 m 610 218 b 667 272 643 218 667 244 b 610 322 667 297 653 322 b 553 272 571 322 553 297 b 610 218 553 244 581 218 m 610 40 b 685 107 654 40 685 67 b 610 175 685 147 654 175 b 535 107 571 175 535 147 b 610 40 535 68 571 40 "},"⅜":{"ha":797,"x_min":0,"x_max":0,"o":"m 161 606 b 35 732 83 606 29 665 l 88 732 b 161 650 79 689 115 650 b 236 717 201 650 236 676 b 133 779 236 769 194 788 l 133 822 b 221 882 196 825 221 849 b 161 933 221 910 194 933 b 97 854 122 933 93 904 l 44 854 b 161 976 39 925 93 976 b 272 882 221 976 272 931 b 231 808 272 854 258 828 b 289 717 263 794 289 764 b 161 606 289 653 229 606 m 668 972 l 726 972 l 129 0 l 63 0 m 635 -3 b 508 107 568 -3 508 43 b 568 199 508 147 531 181 b 526 272 540 217 526 244 b 635 365 526 318 567 365 b 744 272 706 365 744 318 b 703 199 744 244 732 217 b 763 107 742 179 763 147 b 635 -3 763 43 704 -3 m 635 218 b 692 272 668 218 692 244 b 635 322 692 297 678 322 b 578 272 596 322 578 297 b 635 218 578 244 606 218 m 635 40 b 710 107 679 40 710 67 b 635 175 710 147 679 175 b 560 107 596 175 560 147 b 635 40 560 68 596 40 "},"⅝":{"ha":800,"x_min":0,"x_max":0,"o":"m 160 606 b 35 692 96 606 46 649 l 81 718 b 160 650 83 682 114 650 b 239 735 201 650 239 685 b 165 818 239 782 201 818 b 86 778 135 818 108 807 l 42 789 l 67 974 l 258 974 l 258 929 l 114 929 l 103 849 b 165 863 121 857 143 863 b 292 735 228 863 292 808 b 160 606 292 663 232 606 m 668 972 l 726 972 l 129 0 l 63 0 m 638 -3 b 511 107 571 -3 511 43 b 571 199 511 147 533 181 b 529 272 543 217 529 244 b 638 365 529 318 569 365 b 747 272 708 365 747 318 b 706 199 747 244 735 217 b 765 107 744 179 765 147 b 638 -3 765 43 707 -3 m 638 218 b 694 272 671 218 694 244 b 638 322 694 297 681 322 b 581 272 599 322 581 297 b 638 218 581 244 608 218 m 638 40 b 713 107 682 40 713 67 b 638 175 713 147 682 175 b 563 107 599 175 563 147 b 638 40 563 68 599 40 "},"⅞":{"ha":772,"x_min":0,"x_max":0,"o":"m 206 929 l 38 929 l 38 974 l 278 974 l 136 611 l 82 611 m 640 972 l 699 972 l 101 0 l 35 0 m 610 -3 b 483 107 543 -3 483 43 b 543 199 483 147 506 181 b 501 272 515 217 501 244 b 610 365 501 318 542 365 b 719 272 681 365 719 318 b 678 199 719 244 707 217 b 738 107 717 179 738 147 b 610 -3 738 43 679 -3 m 610 218 b 667 272 643 218 667 244 b 610 322 667 297 653 322 b 553 272 571 322 553 297 b 610 218 553 244 581 218 m 610 40 b 685 107 654 40 685 67 b 610 175 685 147 654 175 b 535 107 571 175 535 147 b 610 40 535 68 571 40 "},".":{"ha":276,"x_min":0,"x_max":0,"o":"m 138 -14 b 49 76 89 -14 49 24 b 138 165 49 129 89 165 b 228 76 188 165 228 129 b 138 -14 228 24 188 -14 "},",":{"ha":331,"x_min":0,"x_max":0,"o":"m 154 150 l 289 150 l 168 -189 l 35 -189 "},":":{"ha":318,"x_min":0,"x_max":0,"o":"m 158 539 b 69 628 110 539 69 575 b 158 718 69 681 110 718 b 249 628 208 718 249 681 b 158 539 249 575 208 539 m 158 -14 b 69 76 110 -14 69 24 b 158 165 69 129 110 165 b 249 76 208 165 249 129 b 158 -14 249 24 208 -14 "},";":{"ha":351,"x_min":0,"x_max":0,"o":"m 213 539 b 124 628 164 539 124 575 b 213 718 124 681 164 718 b 303 628 263 718 303 681 b 213 539 303 575 263 539 m 154 150 l 289 150 l 168 -189 l 35 -189 "},"…":{"ha":963,"x_min":0,"x_max":0,"o":"m 138 -14 b 49 76 89 -14 49 24 b 138 165 49 129 89 165 b 228 76 188 165 228 129 b 138 -14 228 24 188 -14 m 481 -14 b 392 76 432 -14 392 24 b 481 165 392 129 432 165 b 571 76 531 165 571 129 b 481 -14 571 24 531 -14 m 824 -14 b 735 76 775 -14 735 24 b 824 165 735 129 775 165 b 914 76 874 165 914 129 b 824 -14 914 24 874 -14 "},"!":{"ha":331,"x_min":0,"x_max":0,"o":"m 86 986 l 244 986 l 244 294 l 86 294 m 165 -14 b 76 76 115 -14 76 24 b 165 165 76 129 115 165 b 256 76 215 165 256 129 b 165 -14 256 24 215 -14 "},"¡":{"ha":319,"x_min":0,"x_max":0,"o":"m 165 736 b 256 646 215 736 256 699 b 165 557 256 593 215 557 b 76 646 115 557 76 593 b 165 736 76 699 115 736 m 244 429 l 244 -264 l 86 -264 l 86 429 "},"?":{"ha":711,"x_min":0,"x_max":0,"o":"m 271 331 b 513 717 271 564 513 557 b 360 864 513 788 464 864 b 194 693 250 864 194 783 l 194 674 l 42 674 l 42 693 b 361 1000 42 892 167 1000 b 669 733 556 1000 669 892 b 428 332 669 499 428 501 l 428 289 l 271 289 m 349 -14 b 258 76 299 -14 258 24 b 349 165 258 129 299 165 b 438 76 399 165 438 129 b 349 -14 438 24 399 -14 "},"¿":{"ha":711,"x_min":0,"x_max":0,"o":"m 363 736 b 451 646 413 736 451 699 b 363 557 451 593 413 557 b 272 646 313 557 272 593 b 363 736 272 699 313 736 m 439 392 b 199 6 439 158 199 165 b 351 -142 199 -65 246 -142 b 517 29 460 -142 517 -61 l 517 49 l 669 49 l 669 29 b 350 -278 669 -169 543 -278 b 42 -11 154 -278 42 -169 b 282 390 42 224 282 221 l 282 433 l 439 433 "},"·":{"ha":304,"x_min":0,"x_max":0,"o":"m 151 289 b 63 378 103 289 63 325 b 151 468 63 431 103 468 b 242 378 201 468 242 431 b 151 289 242 325 201 289 "},"•":{"ha":318,"x_min":0,"x_max":0,"o":"m 158 317 b 69 407 110 317 69 354 b 158 496 69 460 110 496 b 249 407 208 496 249 460 b 158 317 249 354 208 317 "},"*":{"ha":696,"x_min":0,"x_max":0,"o":"m 451 731 l 546 606 l 433 535 l 349 657 l 263 535 l 150 606 l 244 731 l 104 769 l 136 900 l 286 856 l 282 1013 l 411 1013 l 410 856 l 560 900 l 592 769 "},"#":{"ha":764,"x_min":0,"x_max":0,"o":"m 611 588 l 597 386 l 701 386 l 701 250 l 588 250 l 569 0 l 413 0 l 431 250 l 293 250 l 275 0 l 117 0 l 135 250 l 63 250 l 63 386 l 144 386 l 160 588 l 63 588 l 63 722 l 169 722 l 188 972 l 344 972 l 326 722 l 464 722 l 482 972 l 639 972 l 621 722 l 701 722 l 701 588 m 454 588 l 317 588 l 303 386 l 440 386 "},"/":{"ha":674,"x_min":0,"x_max":0,"o":"m 472 1042 l 633 1042 l 231 0 l 69 0 "},"\\":{"ha":674,"x_min":0,"x_max":0,"o":"m 444 0 l 42 1042 l 203 1042 l 606 0 "},"(":{"ha":422,"x_min":0,"x_max":0,"o":"m 210 -181 b 63 444 113 -7 63 194 b 210 1035 63 682 113 872 l 360 1035 b 219 444 269 871 219 682 b 360 -181 219 194 269 -7 l 210 -181 "},")":{"ha":422,"x_min":0,"x_max":0,"o":"m 63 -181 b 203 444 153 -7 203 194 b 63 1035 203 682 153 871 l 213 1035 b 360 444 310 872 360 682 b 213 -181 360 194 310 -7 "},"{":{"ha":442,"x_min":0,"x_max":0,"o":"m 263 -181 b 125 -42 201 -181 125 -150 l 125 326 l 63 425 l 125 526 l 125 896 b 263 1035 125 1004 203 1035 l 379 1035 l 379 900 l 331 900 b 282 856 301 900 282 885 l 282 519 l 213 425 l 282 333 l 282 -1 b 331 -46 282 -31 301 -46 l 379 -46 l 379 -181 l 263 -181 "},"}":{"ha":442,"x_min":0,"x_max":0,"o":"m 63 -181 l 63 -46 l 111 -46 b 160 -1 140 -46 160 -31 l 160 333 l 231 425 l 160 519 l 160 856 b 111 900 160 885 140 900 l 63 900 l 63 1035 l 179 1035 b 317 896 239 1035 317 1004 l 317 526 l 379 425 l 317 326 l 317 -42 b 179 -181 317 -150 240 -181 "},"[":{"ha":393,"x_min":0,"x_max":0,"o":"m 63 1035 l 331 1035 l 331 900 l 219 900 l 219 -46 l 331 -46 l 331 -181 l 63 -181 "},"]":{"ha":393,"x_min":0,"x_max":0,"o":"m 63 -181 l 63 -46 l 174 -46 l 174 900 l 63 900 l 63 1035 l 331 1035 l 331 -181 "},"-":{"ha":556,"x_min":0,"x_max":0,"o":"m 63 449 l 493 449 l 493 321 l 63 321 "},"­":{"ha":556,"x_min":0,"x_max":0,"o":"m 63 449 l 493 449 l 493 321 l 63 321 "},"–":{"ha":833,"x_min":0,"x_max":0,"o":"m 63 449 l 771 449 l 771 321 l 63 321 "},"—":{"ha":917,"x_min":0,"x_max":0,"o":"m 63 449 l 854 449 l 854 321 l 63 321 "},"_":{"ha":819,"x_min":0,"x_max":0,"o":"m 63 0 l 757 0 l 757 -136 l 63 -136 "},"‚":{"ha":331,"x_min":0,"x_max":0,"o":"m 154 150 l 289 150 l 168 -189 l 35 -189 "},"„":{"ha":542,"x_min":0,"x_max":0,"o":"m 154 150 l 289 150 l 168 -189 l 35 -189 m 365 150 l 500 150 l 379 -189 l 246 -189 "},"“":{"ha":535,"x_min":0,"x_max":0,"o":"m 169 647 l 35 647 l 156 986 l 289 986 m 381 647 l 246 647 l 367 986 l 500 986 "},"”":{"ha":535,"x_min":0,"x_max":0,"o":"m 154 986 l 289 986 l 168 647 l 35 647 m 365 986 l 500 986 l 379 647 l 246 647 "},"‘":{"ha":324,"x_min":0,"x_max":0,"o":"m 169 647 l 35 647 l 154 986 l 289 986 "},"’":{"ha":324,"x_min":0,"x_max":0,"o":"m 154 986 l 289 986 l 168 647 l 35 647 "},"«":{"ha":579,"x_min":0,"x_max":0,"o":"m 56 367 l 56 432 l 261 638 l 311 585 l 161 400 l 311 214 l 261 161 m 289 367 l 289 432 l 494 638 l 544 585 l 394 400 l 544 214 l 494 161 "},"»":{"ha":579,"x_min":0,"x_max":0,"o":"m 35 214 l 185 400 l 35 585 l 85 638 l 290 432 l 290 367 l 85 161 m 268 214 l 418 400 l 268 585 l 318 638 l 524 432 l 524 367 l 318 161 "},"‹":{"ha":346,"x_min":0,"x_max":0,"o":"m 56 367 l 56 432 l 261 638 l 311 585 l 161 400 l 311 214 l 261 161 "},"›":{"ha":346,"x_min":0,"x_max":0,"o":"m 35 214 l 185 400 l 35 585 l 85 638 l 290 432 l 290 367 l 85 161 "},"\"":{"ha":429,"x_min":0,"x_max":0,"o":"m 49 986 l 183 986 l 183 647 l 49 647 m 246 986 l 382 986 l 382 647 l 246 647 "},"'":{"ha":232,"x_min":0,"x_max":0,"o":"m 49 986 l 183 986 l 183 647 l 49 647 "},"¢":{"ha":769,"x_min":0,"x_max":0,"o":"m 456 231 b 615 335 522 240 579 279 l 729 265 b 456 92 669 161 568 103 l 456 -56 l 376 -56 l 376 93 b 42 458 203 111 42 238 b 376 822 42 678 203 804 l 376 972 l 456 972 l 456 824 b 729 651 568 814 669 756 l 615 582 b 456 686 579 638 522 676 l 456 231 m 193 458 b 376 232 193 331 278 250 l 376 685 b 193 458 278 667 193 586 "},"¤":{"ha":793,"x_min":0,"x_max":0,"o":"m 706 661 b 668 511 706 606 692 556 l 732 447 l 632 349 l 575 406 b 394 350 525 371 463 350 b 217 403 328 350 267 369 l 163 349 l 63 447 l 122 507 b 83 661 97 553 83 604 b 125 818 83 719 99 772 l 63 881 l 163 979 l 221 921 b 394 972 269 954 329 972 b 572 919 461 972 522 953 l 632 979 l 732 881 l 667 815 b 706 661 692 769 706 718 m 394 479 b 578 661 513 479 578 574 b 394 843 578 750 513 843 b 213 661 278 843 213 750 b 394 479 213 574 278 479 "},"$":{"ha":610,"x_min":0,"x_max":0,"o":"m 568 335 b 361 122 568 210 476 139 l 361 0 l 260 0 l 260 121 b 42 317 144 135 61 203 l 167 351 b 303 242 182 290 228 242 b 415 335 360 242 415 271 b 315 436 415 381 385 408 l 238 465 b 68 669 118 511 68 585 b 260 865 68 776 151 849 l 260 986 l 361 986 l 361 863 b 544 694 456 846 524 783 l 424 663 b 313 746 403 721 363 746 b 218 668 257 746 218 715 b 307 575 218 631 242 599 l 378 547 b 568 335 478 510 568 458 "},"€":{"ha":1044,"x_min":0,"x_max":0,"o":"m 611 136 b 885 271 708 136 811 171 l 999 190 b 606 -14 893 29 735 -14 b 114 368 369 -14 167 135 l 21 368 l 21 451 l 101 451 b 100 493 100 465 100 479 l 100 503 l 21 503 l 21 586 l 107 586 b 606 1000 149 838 358 1000 b 999 796 735 1000 893 957 l 885 715 b 610 850 811 815 706 850 b 271 586 447 850 310 749 l 567 586 l 567 503 l 261 503 l 261 493 b 263 451 261 479 261 465 l 567 451 l 567 368 l 281 368 b 611 136 328 224 460 136 "},"ƒ":{"ha":525,"x_min":0,"x_max":0,"o":"m 386 885 b 278 767 319 885 278 849 l 278 722 l 469 722 l 469 599 l 278 599 l 278 -25 b 56 -264 278 -221 142 -264 b -69 -236 13 -264 -33 -257 l -69 -114 b 15 -132 -39 -129 -3 -132 b 124 -15 82 -132 124 -96 l 124 599 l 36 599 l 36 722 l 124 722 l 124 776 b 346 1015 124 974 260 1015 b 469 988 388 1015 435 1008 l 469 867 b 386 885 440 882 404 885 "},"£":{"ha":785,"x_min":0,"x_max":0,"o":"m 582 671 l 582 694 b 406 865 582 779 528 865 b 233 700 292 865 233 789 b 303 503 233 628 272 568 l 529 503 l 529 388 l 342 388 b 344 351 343 376 344 364 b 240 128 344 264 301 189 l 718 128 l 718 0 l 56 0 l 56 128 b 199 357 131 194 199 263 b 196 388 199 367 197 378 l 56 388 l 56 503 l 153 503 b 83 721 121 567 83 633 b 407 1000 83 890 221 1000 b 731 696 596 1000 731 889 l 731 671 "},"¥":{"ha":935,"x_min":0,"x_max":0,"o":"m 546 393 l 747 393 l 747 310 l 546 310 l 546 258 l 747 258 l 747 175 l 546 175 l 546 0 l 389 0 l 389 175 l 201 175 l 201 258 l 389 258 l 389 310 l 201 310 l 201 393 l 389 393 l 389 410 l 35 986 l 213 986 l 467 557 l 722 986 l 900 986 l 546 410 "},"+":{"ha":635,"x_min":0,"x_max":0,"o":"m 572 328 l 381 328 l 381 138 l 253 138 l 253 328 l 63 328 l 63 456 l 253 456 l 253 646 l 381 646 l 381 456 l 572 456 "},"−":{"ha":590,"x_min":0,"x_max":0,"o":"m 63 449 l 528 449 l 528 321 l 63 321 "},"×":{"ha":576,"x_min":0,"x_max":0,"o":"m 422 151 l 288 286 l 154 151 l 63 243 l 197 376 l 63 511 l 154 601 l 288 468 l 422 601 l 513 511 l 379 376 l 514 242 "},"÷":{"ha":694,"x_min":0,"x_max":0,"o":"m 342 518 b 251 608 292 518 251 556 b 342 697 251 661 292 697 b 431 608 392 697 431 661 b 342 518 431 556 392 518 m 63 449 l 631 449 l 631 321 l 63 321 m 342 72 b 251 163 292 72 251 110 b 342 253 251 215 292 253 b 431 163 392 253 431 215 b 342 72 431 110 392 72 "},"=":{"ha":590,"x_min":0,"x_max":0,"o":"m 63 564 l 528 564 l 528 436 l 63 436 m 63 333 l 528 333 l 528 204 l 63 204 "},"≠":{"ha":590,"x_min":0,"x_max":0,"o":"m 379 436 l 339 333 l 528 333 l 528 204 l 289 204 l 210 0 l 78 0 l 157 204 l 63 204 l 63 333 l 207 333 l 247 436 l 63 436 l 63 564 l 297 564 l 381 779 l 513 779 l 429 564 l 528 564 l 528 436 "},">":{"ha":690,"x_min":0,"x_max":0,"o":"m 49 149 l 443 333 l 49 521 l 49 668 l 628 388 l 628 281 l 49 0 "},"<":{"ha":690,"x_min":0,"x_max":0,"o":"m 63 281 l 63 388 l 642 668 l 642 521 l 247 333 l 642 149 l 642 0 "},"≥":{"ha":601,"x_min":0,"x_max":0,"o":"m 63 353 l 388 521 l 63 690 l 63 824 l 539 569 l 539 472 l 63 218 m 539 0 l 63 0 l 63 129 l 539 129 "},"≤":{"ha":588,"x_min":0,"x_max":0,"o":"m 63 472 l 63 569 l 539 824 l 539 690 l 214 521 l 539 353 l 539 218 m 539 129 l 539 0 l 63 0 l 63 129 "},"±":{"ha":635,"x_min":0,"x_max":0,"o":"m 572 538 l 572 410 l 381 410 l 381 219 l 253 219 l 253 410 l 63 410 l 63 538 l 253 538 l 253 728 l 381 728 l 381 538 m 83 131 l 550 131 l 550 1 l 83 1 "},"≈":{"ha":629,"x_min":0,"x_max":0,"o":"m 421 397 b 235 478 310 397 303 478 b 179 431 204 478 179 461 l 63 431 b 208 590 63 526 117 590 b 394 510 319 590 326 510 b 450 558 425 510 450 526 l 567 558 b 421 397 567 461 513 397 m 421 169 b 235 250 310 169 303 250 b 179 201 204 250 179 233 l 63 201 b 208 363 63 299 117 363 b 394 282 319 363 326 282 b 450 329 425 282 450 299 l 567 329 b 421 169 567 233 513 169 "},"~":{"ha":629,"x_min":0,"x_max":0,"o":"m 421 300 b 235 381 310 300 303 381 b 179 332 204 381 179 364 l 63 332 b 208 493 63 429 117 493 b 394 413 319 493 326 413 b 450 461 425 413 450 429 l 567 461 b 421 300 567 364 513 300 "},"¬":{"ha":706,"x_min":0,"x_max":0,"o":"m 643 147 l 497 147 l 497 292 l 63 292 l 63 419 l 643 419 "},"^":{"ha":681,"x_min":0,"x_max":0,"o":"m 294 972 l 386 972 l 618 660 l 478 660 l 342 846 l 203 660 l 63 660 "},"∞":{"ha":1136,"x_min":0,"x_max":0,"o":"m 832 599 b 1075 364 975 599 1075 494 b 832 125 1075 229 975 125 b 568 271 731 125 640 192 b 306 125 496 192 407 125 b 63 364 161 125 63 229 b 306 599 63 494 161 599 b 568 454 407 599 496 533 b 832 599 640 533 731 599 m 308 249 b 490 364 363 249 431 279 b 308 478 431 447 363 478 b 189 364 239 478 189 426 b 308 249 189 300 239 249 m 828 249 b 949 364 897 249 949 300 b 828 478 949 426 897 478 b 644 364 774 478 704 447 b 828 249 704 279 774 249 "},"∫":{"ha":349,"x_min":0,"x_max":0,"o":"m -69 -129 b 35 -4 24 -129 35 -99 l 35 728 b 294 972 35 904 108 972 l 294 838 b 192 699 203 838 192 792 l 192 -35 b -69 -264 192 -211 118 -264 "},"∏":{"ha":988,"x_min":0,"x_max":0,"o":"m 63 972 l 925 972 l 925 -264 l 775 -264 l 775 831 l 213 831 l 213 -264 l 63 -264 "},"∑":{"ha":944,"x_min":0,"x_max":0,"o":"m 444 354 l 63 972 l 882 972 l 882 831 l 314 831 l 615 354 l 314 -122 l 882 -122 l 882 -264 l 63 -264 "},"√":{"ha":1086,"x_min":0,"x_max":0,"o":"m 226 349 l 63 349 l 63 519 l 331 519 l 554 -57 l 869 972 l 1024 972 l 653 -264 l 474 -264 "},"µ":{"ha":814,"x_min":0,"x_max":0,"o":"m 738 722 l 738 0 l 583 0 l 583 107 b 353 -14 543 40 468 -14 b 229 11 308 -14 267 -6 l 229 -264 l 76 -264 l 76 722 l 229 722 l 229 322 b 406 125 229 196 300 125 b 583 322 511 125 583 196 l 583 722 "},"∂":{"ha":764,"x_min":0,"x_max":0,"o":"m 560 656 b 708 307 621 574 708 461 b 383 -14 708 107 558 -14 b 54 301 208 -14 54 107 b 349 604 54 483 189 604 b 433 592 378 604 407 600 l 149 986 l 324 986 l 560 656 m 382 121 b 563 297 485 121 563 194 b 382 474 563 401 485 474 b 201 297 279 474 201 401 b 382 121 201 194 279 121 "},"%":{"ha":969,"x_min":0,"x_max":0,"o":"m 221 651 b 49 822 125 651 49 726 b 221 993 49 918 125 993 b 393 822 317 993 393 918 b 221 651 393 726 317 651 m 121 74 l 717 989 l 832 915 l 239 0 m 221 754 b 289 822 260 754 289 782 b 221 890 289 863 260 890 b 153 822 182 890 153 863 b 221 754 153 782 182 754 m 749 -7 b 576 164 653 -7 576 68 b 749 335 576 260 653 335 b 921 164 844 335 921 260 b 749 -7 921 68 844 -7 m 749 96 b 817 164 788 96 817 124 b 749 232 817 204 788 232 b 681 164 710 232 681 204 b 749 96 681 124 710 96 "},"‰":{"ha":1389,"x_min":0,"x_max":0,"o":"m 221 651 b 49 822 125 651 49 726 b 221 993 49 918 125 993 b 393 822 317 993 393 918 b 221 651 393 726 317 651 m 121 74 l 717 989 l 832 915 l 239 0 m 221 754 b 289 822 260 754 289 782 b 221 890 289 863 260 890 b 153 822 182 890 153 863 b 221 754 153 782 182 754 m 749 -7 b 576 164 653 -7 576 68 b 749 335 576 260 653 335 b 921 164 844 335 921 260 b 749 -7 921 68 844 -7 m 1168 -7 b 996 164 1072 -7 996 68 b 1168 335 996 260 1072 335 b 1340 164 1264 335 1340 260 b 1168 -7 1340 68 1264 -7 m 749 96 b 817 164 788 96 817 124 b 749 232 817 204 788 232 b 681 164 710 232 681 204 b 749 96 681 124 710 96 m 1168 96 b 1236 164 1207 96 1236 124 b 1168 232 1236 204 1207 232 b 1100 164 1129 232 1100 204 b 1168 96 1100 124 1129 96 "},"◊":{"ha":774,"x_min":0,"x_max":0,"o":"m 711 486 l 496 0 l 278 0 l 63 486 l 278 972 l 496 972 m 551 486 l 388 858 l 222 486 l 388 114 "},"@":{"ha":1111,"x_min":0,"x_max":0,"o":"m 783 36 b 567 -14 722 4 649 -14 b 63 494 296 -14 63 188 b 569 1000 63 799 306 1000 b 1049 511 824 1000 1049 814 b 847 232 1049 314 951 232 b 699 349 754 232 711 296 b 524 233 679 303 619 233 b 313 490 419 233 313 314 b 524 743 313 663 417 743 b 676 654 618 743 663 679 l 692 732 l 776 732 l 776 435 b 840 344 776 375 801 344 b 913 493 885 344 913 383 b 567 875 913 743 758 875 b 199 494 364 875 199 725 b 572 111 199 254 365 111 b 783 168 661 111 735 138 l 783 36 m 549 351 b 657 490 611 351 657 403 b 549 625 657 576 611 625 b 440 490 485 625 440 576 b 549 351 440 403 485 351 "},"&":{"ha":960,"x_min":0,"x_max":0,"o":"m 858 129 b 913 142 872 129 893 132 l 913 21 b 822 -8 893 -1 851 -8 b 686 139 738 -8 686 49 l 686 157 b 396 -14 647 64 550 -14 b 63 308 217 -14 63 104 b 313 615 63 496 189 599 l 132 986 l 665 986 l 665 858 l 319 858 l 478 517 l 436 517 b 219 319 310 517 219 443 b 424 122 219 192 318 122 b 646 347 542 122 646 203 l 646 596 l 894 596 l 894 472 l 790 472 l 790 203 b 858 129 790 161 811 129 "},"¶":{"ha":1088,"x_min":0,"x_max":0,"o":"m 63 657 b 408 986 63 853 196 986 l 744 986 l 744 0 l 588 0 l 588 329 l 408 329 b 63 657 196 329 63 463 m 1011 986 l 1011 0 l 854 0 l 854 986 m 422 840 b 222 657 303 840 222 783 b 422 475 222 531 303 475 l 588 475 l 588 840 "},"§":{"ha":610,"x_min":0,"x_max":0,"o":"m 506 240 b 569 92 546 203 569 156 b 288 -126 569 -54 450 -126 b 42 -29 164 -126 69 -69 l 42 129 l 156 129 l 156 40 b 289 -15 165 24 214 -15 b 439 93 381 -15 439 26 b 319 219 439 165 392 192 l 236 249 b 46 467 121 290 46 354 b 114 615 46 531 71 581 b 46 767 71 653 46 701 b 297 974 46 899 154 974 b 533 882 410 974 515 918 l 533 724 l 421 724 l 421 813 b 297 863 411 829 363 863 b 168 763 221 863 168 825 b 272 651 168 714 199 676 l 361 619 b 569 392 488 572 569 513 b 506 240 569 326 546 276 m 361 319 b 390 308 371 315 381 313 b 439 393 421 326 439 356 b 319 519 439 465 392 492 l 236 549 l 231 550 b 168 463 192 535 168 504 b 272 351 168 414 199 376 "},"©":{"ha":1110,"x_min":0,"x_max":0,"o":"m 556 -10 b 63 493 297 -10 63 190 b 556 996 63 796 297 996 b 1049 493 813 996 1049 796 b 556 -10 1049 190 813 -10 m 556 125 b 911 493 746 125 911 267 b 556 861 911 719 746 861 b 199 493 364 861 199 719 b 556 125 199 267 364 125 m 564 214 b 294 493 414 214 294 325 b 564 772 294 661 414 772 b 747 693 640 772 706 742 l 671 604 b 572 644 647 628 613 644 b 428 493 492 644 428 582 b 572 342 428 404 492 342 b 671 383 613 342 647 358 l 747 293 b 564 214 706 244 640 214 "},"®":{"ha":1110,"x_min":0,"x_max":0,"o":"m 556 -10 b 63 493 297 -10 63 190 b 556 1003 63 803 297 1003 b 1049 493 813 1003 1049 803 b 556 -10 1049 190 813 -10 m 556 125 b 911 493 746 125 911 267 b 556 868 911 726 746 868 b 199 493 364 868 199 726 b 556 125 199 267 364 125 m 385 749 l 575 749 b 746 581 689 749 746 681 b 642 424 746 504 713 457 l 767 250 l 660 250 l 544 419 l 483 419 l 483 250 l 385 250 m 561 507 b 646 581 611 507 646 522 b 561 661 646 640 611 661 l 481 661 l 481 507 "},"™":{"ha":786,"x_min":0,"x_max":0,"o":"m 178 931 l 90 931 l 90 986 l 328 986 l 328 931 l 240 931 l 240 736 l 178 736 m 376 986 l 440 986 l 536 806 l 632 986 l 696 986 l 696 736 l 632 736 l 632 878 l 561 736 l 511 736 l 440 878 l 440 736 l 376 736 "},"°":{"ha":524,"x_min":0,"x_max":0,"o":"m 263 592 b 56 797 150 592 56 682 b 263 1000 56 913 150 1000 b 469 797 375 1000 469 913 b 263 592 469 682 375 592 m 263 706 b 353 797 321 706 353 751 b 263 886 353 843 321 886 b 171 797 203 886 171 843 b 263 706 171 751 203 706 "},"|":{"ha":329,"x_min":0,"x_max":0,"o":"m 97 986 l 232 986 l 232 -125 l 97 -125 "},"¦":{"ha":329,"x_min":0,"x_max":0,"o":"m 97 986 l 232 986 l 232 597 l 97 597 m 97 264 l 232 264 l 232 -125 l 97 -125 "},"†":{"ha":474,"x_min":0,"x_max":0,"o":"m 419 697 l 288 697 l 269 447 l 207 447 l 189 697 l 56 697 l 56 799 l 182 799 l 168 986 l 307 986 l 294 799 l 419 799 "},"‡":{"ha":474,"x_min":0,"x_max":0,"o":"m 419 799 l 419 697 l 283 697 l 269 533 l 207 533 l 193 697 l 56 697 l 56 799 l 185 799 l 168 986 l 307 986 l 292 799 m 283 289 l 419 289 l 419 188 l 292 188 l 307 0 l 168 0 l 185 188 l 56 188 l 56 289 l 193 289 l 207 453 l 269 453 "},"̦":{"ha":0,"x_min":0,"x_max":0,"o":"m -149 -56 l -14 -56 l -135 -394 l -268 -394 "},"´":{"ha":254,"x_min":0,"x_max":0,"o":"m 101 1028 l 240 1028 l 143 811 l 14 811 "},"˘":{"ha":447,"x_min":0,"x_max":0,"o":"m 224 817 b 14 1028 72 817 13 925 l 126 1028 b 224 924 126 974 153 924 b 321 1028 293 924 321 974 l 433 1028 b 224 817 435 925 374 817 "},"ˇ":{"ha":435,"x_min":0,"x_max":0,"o":"m 215 886 l 340 1028 l 417 960 l 267 788 l 164 788 l 14 960 l 90 1028 "},"¸":{"ha":281,"x_min":0,"x_max":0,"o":"m 142 -56 b 267 -174 217 -57 267 -107 b 24 -301 267 -278 142 -328 l 24 -247 b 153 -185 99 -250 153 -236 b 33 -124 153 -146 121 -112 l 14 -86 l 67 0 l 181 0 l 142 -56 "},"ˆ":{"ha":431,"x_min":0,"x_max":0,"o":"m 14 856 l 164 1028 l 267 1028 l 417 856 l 340 788 l 215 929 l 90 788 "},"¨":{"ha":465,"x_min":0,"x_max":0,"o":"m 0 1001 l 144 1001 l 144 849 l 0 849 m 321 1001 l 465 1001 l 465 849 l 321 849 "},"˙":{"ha":182,"x_min":0,"x_max":0,"o":"m 14 1001 l 168 1001 l 168 849 l 14 849 "},"`":{"ha":254,"x_min":0,"x_max":0,"o":"m 110 811 l 14 1028 l 151 1028 l 240 811 "},"˝":{"ha":493,"x_min":0,"x_max":0,"o":"m 101 1028 l 240 1028 l 143 811 l 14 811 m 342 1028 l 479 1028 l 383 811 l 254 811 "},"¯":{"ha":515,"x_min":0,"x_max":0,"o":"m 0 972 l 515 972 l 515 854 l 0 854 "},"˛":{"ha":324,"x_min":0,"x_max":0,"o":"m 249 -275 b 0 -162 174 -318 0 -300 b 190 13 0 -82 72 -21 l 324 0 b 138 -142 178 -42 138 -93 b 249 -206 138 -200 200 -225 l 249 -275 "},"˚":{"ha":313,"x_min":0,"x_max":0,"o":"m 158 815 b 14 957 75 815 14 879 b 158 1100 14 1036 75 1100 b 299 957 236 1100 299 1036 b 158 815 299 879 236 815 m 156 914 b 200 957 181 914 200 933 b 156 1001 200 982 181 1001 b 114 957 131 1001 114 982 b 156 914 114 933 131 914 "},"˜":{"ha":532,"x_min":0,"x_max":0,"o":"m 372 826 b 186 907 261 826 254 907 b 131 858 156 907 131 890 l 14 858 b 160 1019 14 956 68 1019 b 346 939 271 1019 278 939 b 401 988 376 939 401 956 l 518 988 b 372 826 518 890 464 826 "}}}
